<svg
  width="24"
  height="24"
  viewBox="0 0 24 24"
  fill="none"
  xmlns="http://www.w3.org/2000/svg"
>
  <path
    d="M12.4999 2.5L12.7923 2.50259C14.9375 2.54046 17.211 2.99426 19.6148 3.87103L19.9999 4.015V17.7003L19.9957 17.7653C19.9761 17.915 19.8896 18.0481 19.7607 18.1269L19.703 18.1572L13.9913 20.6959C14.0225 20.3229 13.9696 19.9487 13.8308 19.5567C13.706 19.2045 13.4474 18.6664 13.3099 18.3592C12.3551 16.2811 11.3304 14.1747 10.2642 12.0986L10.0984 11.7801C9.86405 11.3243 9.68592 10.9652 9.44097 10.6775C9.06927 10.2406 8.55754 10 7.9999 10C7.44216 10 6.93034 10.2408 6.55845 10.6779C6.25594 11.0336 6.04313 11.5188 5.73556 12.0985C5.48772 12.5812 5.24213 13.0654 4.99915 13.5506L4.99994 4.0145L5.38448 3.87126C7.78369 2.99608 10.0532 2.54226 12.1949 2.50282L12.4999 2.5Z"
    fill="#FFA666"
  />
  <path
    d="M12.5 0.5C15.2992 0.5 18.2587 1.13737 21.3774 2.40821C21.7287 2.55142 21.9666 2.87986 21.9967 3.25355L22 3.33427V17.7003C22 18.6502 21.462 19.5145 20.618 19.9363L20.5153 19.9848L12.9939 23.3276C12.7632 23.4302 12.0629 23.4915 11.5961 23.4992L11.5 23.5L11.5004 22.9998C11.8246 22.9963 12.1426 22.9332 12.4396 22.8124C12.856 22.6429 13.2125 22.3654 13.4791 22.0181L20.1092 19.071C20.6208 18.8436 20.9606 18.3518 20.9967 17.7985L21 17.7003V3.33427L20.6541 3.19574C17.7782 2.06409 15.0605 1.5 12.5 1.5C9.93939 1.5 7.22167 2.06409 4.34581 3.19574L3.99996 3.33428L3.99981 15.5812C3.65947 16.2851 3.32563 16.9888 2.99939 17.6899L2.99996 3.33428C2.99996 2.92772 3.24608 2.56162 3.62258 2.4082C6.74121 1.13737 9.7007 0.5 12.5 0.5Z"
    fill="#FFA666"
  />
  <path
    d="M7.99995 20.8465L8.34332 20.4039C9.14118 19.3875 9.6393 18.4602 9.82395 17.648C9.96417 17.032 9.93988 16.3896 9.58373 15.8684C9.24368 15.3708 8.65163 15.0737 8.00005 15.0737C7.34837 15.0737 6.75623 15.3707 6.41627 15.8682C6.06132 16.3878 6.03537 17.0283 6.17577 17.6472C6.36024 18.4596 6.85845 19.387 7.65659 20.4039L7.99995 20.8465L8.32234 21.2061C8.8971 21.8361 9.4091 22.2674 9.93372 22.5636C10.3413 22.7937 10.7538 22.9343 11.1598 22.9816C11.6004 23.0332 12.0391 22.9754 12.4397 22.8124C13.2608 22.4782 13.849 21.7236 13.9747 20.843C14.0349 20.4211 13.9879 20.0003 13.8309 19.5567C13.7061 19.2045 13.4475 18.6664 13.3099 18.3592C12.3552 16.2811 11.3304 14.1747 10.2643 12.0986C9.93997 11.4874 9.74041 11.0292 9.44103 10.6775C9.06933 10.2406 8.5576 10 7.99995 10C7.44222 10 6.9304 10.2408 6.55851 10.6779C6.256 11.0336 6.04319 11.5188 5.73562 12.0985C4.66928 14.1752 3.64462 16.2815 2.68997 18.3591C2.54884 18.6744 2.29343 19.2057 2.16913 19.5565C2.01208 20.0001 1.96507 20.4209 2.02533 20.8431C2.15092 21.7236 2.73901 22.4781 3.56016 22.8124C3.96986 22.9791 4.40725 23.0322 4.83995 22.9816C5.24643 22.9342 5.65898 22.7936 6.06619 22.5636C6.5908 22.2675 7.10281 21.8361 7.67757 21.2061L7.99995 20.8465Z"
    stroke="black"
  />
</svg>
