<svg
  style="width: 24px; height: 24px"
  width="26"
  height="26"
  viewBox="0 0 26 26"
  fill="none"
  xmlns="http://www.w3.org/2000/svg"
>
  <path
    d="M22.0811 22.3808L21.6179 21.7909L21.5985 21.8061L21.5802 21.8226L22.0811 22.3808ZM19.8954 24.3421L20.3963 24.9003H20.3963L19.8954 24.3421ZM25 8.35612H25.75L25.75 8.35286L25 8.35612ZM24.1016 20.7944L24.5647 21.3842L24.1016 20.7944ZM24.9858 5.0899H24.2358L24.2358 5.09316L24.9858 5.0899ZM24.7927 19.6736C25.193 19.7803 25.6039 19.5422 25.7105 19.142C25.8172 18.7417 25.5791 18.3308 25.1789 18.2242L24.7927 19.6736ZM20.5674 17.7719L20.7604 17.0472L20.7517 17.045L20.5674 17.7719ZM17.4113 20.1259L16.6641 20.1901L16.6661 20.2139L16.6697 20.2375L17.4113 20.1259ZM5.61525 4.47189C5.61525 4.8861 5.95103 5.22189 6.36525 5.22189C6.77946 5.22189 7.11525 4.8861 7.11525 4.47189H5.61525ZM7.11525 1C7.11525 0.585786 6.77946 0.25 6.36525 0.25C5.95103 0.25 5.61525 0.585786 5.61525 1H7.11525ZM18.2188 4.5144C18.2287 4.92849 18.5724 5.25615 18.9865 5.24625C19.4006 5.23634 19.7283 4.89262 19.7184 4.47853L18.2188 4.5144ZM19.6353 1.0062C19.6254 0.592105 19.2817 0.264445 18.8676 0.27435C18.4535 0.284256 18.1258 0.627977 18.1358 1.04207L19.6353 1.0062ZM1.75 22.646V8.35612H0.25V22.646H1.75ZM21.5802 21.8226L19.3945 23.7839L20.3963 24.9003L22.582 22.939L21.5802 21.8226ZM18.1445 24.25H3.52482V25.75H18.1445V24.25ZM24.25 8.35612V18.9938H25.75V8.35612H24.25ZM23.6384 20.2045L21.6179 21.7909L22.5442 22.9707L24.5647 21.3842L23.6384 20.2045ZM19.3945 23.7839C19.0666 24.0781 18.6192 24.25 18.1445 24.25V25.75C18.9756 25.75 19.7833 25.4503 20.3963 24.9003L19.3945 23.7839ZM0.25 22.646C0.25 24.4089 1.76655 25.75 3.52482 25.75V24.25C2.49425 24.25 1.75 23.4833 1.75 22.646H0.25ZM24.25 18.9938C24.25 19.4467 24.036 19.8923 23.6384 20.2045L24.5647 21.3842C25.3064 20.8019 25.75 19.9297 25.75 18.9938H24.25ZM3.52482 3.48594H22.461V1.98594H3.52482V3.48594ZM24.2358 5.09316L24.25 8.35938L25.75 8.35286L25.7358 5.08664L24.2358 5.09316ZM1.75 8.35612V5.0899H0.25V8.35612H1.75ZM22.461 3.48594C23.4916 3.48594 24.2358 4.25269 24.2358 5.0899H25.7358C25.7358 3.327 24.2192 1.98594 22.461 1.98594V3.48594ZM3.52482 1.98594C1.76655 1.98594 0.25 3.327 0.25 5.0899H1.75C1.75 4.25269 2.49425 3.48594 3.52482 3.48594V1.98594ZM20.3743 18.4967L24.7927 19.6736L25.1789 18.2242L20.7604 17.0472L20.3743 18.4967ZM18.8862 24.8884L18.153 20.0143L16.6697 20.2375L17.4029 25.1116L18.8862 24.8884ZM20.7517 17.045C19.7317 16.7863 18.6794 16.9924 17.8919 17.5522C17.0918 18.1211 16.567 19.0598 16.6641 20.1901L18.1586 20.0617C18.1111 19.5091 18.3528 19.065 18.7611 18.7748C19.182 18.4755 19.7801 18.3461 20.383 18.4989L20.7517 17.045ZM7.11525 4.47189V1H5.61525V4.47189H7.11525ZM19.7184 4.47853L19.6353 1.0062L18.1358 1.04207L18.2188 4.5144L19.7184 4.47853ZM25 7.60612H12.9929V9.10612H25V7.60612ZM12.9929 7.60612H1V9.10612H12.9929V7.60612Z"
    fill="black"
  />
</svg>
