<svg
  width="24"
  height="24"
  viewBox="0 0 24 24"
  fill="none"
  xmlns="http://www.w3.org/2000/svg"
>
  <path
    d="M19.5 14.25C19.5 14.4489 19.421 14.6397 19.2803 14.7803C19.1397 14.921 18.9489 15 18.75 15C18.5511 15 18.3603 14.921 18.2197 14.7803C18.079 14.6397 18 14.4489 18 14.25C18 14.0511 18.079 13.8603 18.2197 13.7197C18.3603 13.579 18.5511 13.5 18.75 13.5C18.9489 13.5 19.1397 13.579 19.2803 13.7197C19.421 13.8603 19.5 14.0511 19.5 14.25ZM5.25 13.5C5.05109 13.5 4.86032 13.579 4.71967 13.7197C4.57902 13.8603 4.5 14.0511 4.5 14.25C4.5 14.4489 4.57902 14.6397 4.71967 14.7803C4.86032 14.921 5.05109 15 5.25 15C5.44891 15 5.63968 14.921 5.78033 14.7803C5.92098 14.6397 6 14.4489 6 14.25C6 14.0511 5.92098 13.8603 5.78033 13.7197C5.63968 13.579 5.44891 13.5 5.25 13.5ZM20.7698 9.75L21.0848 10.5893C21.9398 11.277 22.5 12.3195 22.5 13.5V20.25C22.5 21.0772 21.8272 21.75 21 21.75H19.5C18.6728 21.75 18 21.0772 18 20.25V18.75H6V20.25C6 21.0772 5.32725 21.75 4.5 21.75H3C2.17275 21.75 1.5 21.0772 1.5 20.25V13.5C1.5 12.3188 2.0595 11.2762 2.916 10.5885L3.231 9.75H1.5V8.25H3.75V8.364L5.115 4.7235C5.22301 4.43806 5.41515 4.19215 5.66599 4.01831C5.91684 3.84447 6.21456 3.75091 6.51975 3.75H17.4802C18.102 3.75 18.6653 4.14075 18.885 4.72275L20.25 8.36325V8.25H22.5V9.75H20.7698ZM4.5 18.75H3V20.25H4.5V18.75ZM21 18.75H19.5V20.25H21V18.75ZM21 17.25V13.5C21 12.2595 19.9905 11.25 18.75 11.25H5.25C4.0095 11.25 3 12.2595 3 13.5V17.25H21ZM18.75 9.75H19.1677L17.4802 5.25H6.51975L4.83225 9.75H18.75ZM7.5 15H16.5V13.5H7.5V15Z"
    fill="black"
  />
</svg>
