<svg width="24" height="24" viewBox="0 0 24 24" fill="none" xmlns="http://www.w3.org/2000/svg">
<path d="M19.5 0.75C19.9925 0.75 20.4801 0.846997 20.9351 1.03545C21.39 1.22391 21.8034 1.50013 22.1516 1.84835C22.4999 2.19657 22.7761 2.60997 22.9645 3.06494C23.153 3.51991 23.25 4.00754 23.25 4.5C23.25 9.29175 22.056 14.3903 20.25 15.5198V23.25H18.75V15.5205C16.977 14.412 15.7935 9.474 15.7515 4.75875L15.75 4.5L15.7537 4.33725C15.7957 3.37181 16.2087 2.45983 16.9067 1.79149C17.6046 1.12316 18.5337 0.750056 19.5 0.75ZM12.75 0.75V14.3385C14.4878 14.7563 15.75 16.596 15.75 18.75C15.75 21.2025 14.1128 23.25 12 23.25C9.88725 23.25 8.25 21.2025 8.25 18.75C8.25 16.596 9.51225 14.7555 11.25 14.3385V0.75H12.75ZM1.5 0.75H2.25C5.6025 0.75 7.4505 5.52375 7.49925 14.6287L7.5 15.75H2.99925L3 23.25H1.5V0.75ZM12 15.75C10.7985 15.75 9.75 17.061 9.75 18.75C9.75 20.439 10.7985 21.75 12 21.75C13.2015 21.75 14.25 20.439 14.25 18.75C14.25 17.061 13.2015 15.75 12 15.75ZM3 2.42925V14.25H5.99625L5.9835 13.527L5.96325 12.8153C5.75475 6.86775 4.67625 3.46725 3.168 2.523L3.078 2.4705L3 2.42925ZM17.2537 4.368L17.25 4.5L17.2515 4.7325C17.2853 7.97325 18.0247 11.5823 18.7507 13.275V2.3775C18.3331 2.5252 17.9682 2.79284 17.702 3.14691C17.4357 3.50098 17.2798 3.92574 17.2537 4.368ZM20.2507 2.37825V13.2728C20.9925 11.5403 21.75 7.8 21.75 4.5C21.75 4.03466 21.6057 3.58078 21.3371 3.2008C21.0685 2.82083 20.6887 2.53347 20.25 2.37825H20.2507Z" fill="black"/>
</svg>