<svg width="16" height="16" viewBox="0 0 16 16" fill="none" xmlns="http://www.w3.org/2000/svg">
<path d="M9.931 12.0525L10.6985 12.8205C10.6694 12.9797 10.6794 13.1435 10.7276 13.298C10.7757 13.4525 10.8607 13.593 10.9751 13.7074C11.0895 13.8218 11.23 13.9068 11.3845 13.9549C11.539 14.0031 11.7028 14.0131 11.862 13.984L12.637 14.758C12.3323 14.9235 11.9899 15.0069 11.6433 15.0001C11.2966 14.9933 10.9577 14.8965 10.6598 14.7192C10.3619 14.5419 10.1151 14.2902 9.94379 13.9888C9.77246 13.6875 9.68242 13.3467 9.6825 13C9.68334 12.6865 9.75947 12.3779 9.9045 12.1L9.9305 12.0525H9.931ZM5.8785 8L9.8785 12H5.405C5.577 12.295 5.6825 12.634 5.6825 13C5.6825 13.5304 5.47179 14.0391 5.09671 14.4142C4.72164 14.7893 4.21293 15 3.6825 15C3.15207 15 2.64336 14.7893 2.26829 14.4142C1.89321 14.0391 1.6825 13.5304 1.6825 13C1.6825 12.2275 2.125 11.565 2.766 11.232C2.7785 11.2125 2.791 11.193 2.805 11.174L2.829 11.1465L4.975 9H4.182C3.81853 9.00004 3.46745 9.13206 3.194 9.3715L3.1215 9.4395L1.207 11.354L0.5 10.647L2.4145 8.732C2.85111 8.29577 3.43366 8.03646 4.05 8.004L4.182 8H5.8785ZM1.9895 1.2825L14.7175 14.0105L14.0105 14.7175L1.2825 1.9895L1.9895 1.2825ZM3.6825 12C3.41728 12 3.16293 12.1054 2.97539 12.2929C2.78786 12.4804 2.6825 12.7348 2.6825 13C2.6825 13.2652 2.78786 13.5196 2.97539 13.7071C3.16293 13.8946 3.41728 14 3.6825 14C3.94772 14 4.20207 13.8946 4.38961 13.7071C4.57714 13.5196 4.6825 13.2652 4.6825 13C4.6825 12.7348 4.57714 12.4804 4.38961 12.2929C4.20207 12.1054 3.94772 12 3.6825 12ZM15.1825 1V2H14.011C13.6474 1.99992 13.2961 2.13194 13.0225 2.3715L12.9505 2.4395L12.6825 2.707V9.5C12.6825 9.815 12.6215 10.115 12.5125 10.391L8.048 5.9265L8.078 5.8965L7.986 5.8645L6.8035 4.683C6.69375 4.38096 6.65841 4.05691 6.70046 3.73831C6.74251 3.41971 6.86071 3.11594 7.04506 2.85271C7.22941 2.58948 7.47447 2.37455 7.7595 2.22611C8.04453 2.07768 8.36114 2.00012 8.6825 2C9.0887 2.00073 9.48496 2.12566 9.81813 2.35802C10.1513 2.59039 10.4055 2.91907 10.5465 3.3L10.5795 3.396L10.829 3.146L10.965 3.011L12.243 1.732C12.6795 1.29559 13.2621 1.0361 13.8785 1.0035L14.011 1H15.1825Z" fill="black"/>
</svg>
