<svg width="16" height="16" viewBox="0 0 16 16" fill="none" xmlns="http://www.w3.org/2000/svg">
<g clip-path="url(#clip0_419_401)">
<path d="M2.55998 4.6815L9.50099 11.6215C9.25399 11.796 8.99598 11.9685 8.72648 12.139L9.82498 13.6C9.87558 13.6673 9.91042 13.7451 9.92695 13.8276C9.94348 13.9101 9.94128 13.9953 9.9205 14.0769C9.89973 14.1585 9.86091 14.2343 9.8069 14.2989C9.7529 14.3635 9.6851 14.4151 9.60848 14.45L9.55299 14.4715L9.47448 14.491L9.45448 14.494L9.37548 14.5005H8.49998V16.0005H7.49998V14.5005H6.62498C6.54522 14.5005 6.46636 14.4836 6.39364 14.4509C6.32092 14.4181 6.25599 14.3703 6.20317 14.3105C6.15035 14.2507 6.11085 14.1804 6.08729 14.1042C6.06372 14.028 6.05663 13.9477 6.06648 13.8685L6.07898 13.803L6.11248 13.7085L6.12298 13.686L6.17448 13.601L7.24448 12.17C4.10598 10.459 2.49998 8.2285 2.49998 5.5C2.49998 5.222 2.52048 4.9485 2.55998 4.6815ZM1.85348 1.1465L14.8535 14.1465L14.1465 14.8535L1.14648 1.8535L1.85348 1.1465ZM7.99998 3.52469e-06C10.9545 3.52469e-06 13.5 2.6375 13.5 5.5C13.5 6.9575 12.9165 8.338 11.764 9.643L3.92648 1.8045C4.44149 1.23553 5.07014 0.780946 5.7718 0.470117C6.47347 0.159288 7.23255 -0.000866362 7.99998 3.52469e-06ZM11 3.5C10.7348 3.5 10.4804 3.60536 10.2929 3.7929C10.1053 3.98043 9.99998 4.23479 9.99998 4.5C9.99998 4.76522 10.1053 5.01957 10.2929 5.20711C10.4804 5.39465 10.7348 5.5 11 5.5C11.2652 5.5 11.5196 5.39465 11.7071 5.20711C11.8946 5.01957 12 4.76522 12 4.5C12 4.23479 11.8946 3.98043 11.7071 3.7929C11.5196 3.60536 11.2652 3.5 11 3.5Z" fill="black"/>
</g>
<defs>
<clipPath id="clip0_419_401">
<rect width="16" height="16" fill="white"/>
</clipPath>
</defs>
</svg>
