<svg
  width="24"
  height="24"
  viewBox="0 0 24 24"
  fill="none"
  xmlns="http://www.w3.org/2000/svg"
>
  <path
    d="M9.76777 11.2224L9.77319 11.2163L9.77847 11.2101C10.1683 10.7537 11.039 10.4292 12.0727 10.4292C13.1065 10.4292 13.9772 10.7537 14.367 11.2101L14.3681 11.2114L18.01 15.4563C18.0101 15.4564 18.0102 15.4565 18.0103 15.4567C18.8468 16.4365 18.691 17.7063 17.861 18.7743C17.0159 19.8617 15.661 20.4722 14.5037 20.173L12.9478 19.7708C12.4247 19.6355 11.8831 19.6325 11.3587 19.7619L11.3503 19.764L11.342 19.7662L9.84317 20.1729C8.68054 20.4556 7.23389 19.8318 6.2992 18.7304C5.37595 17.6425 5.18649 16.4032 5.98506 15.4621L9.76777 11.2224ZM4.66963 11.3745C4.66963 11.9438 4.48396 12.3263 4.24371 12.5651C3.99989 12.8074 3.645 12.9564 3.20982 12.9564C2.77463 12.9564 2.41975 12.8074 2.17592 12.5651C1.93567 12.3263 1.75 11.9438 1.75 11.3745C1.75 10.8052 1.93561 10.4236 2.17549 10.1856C2.41906 9.94396 2.77398 9.79522 3.20982 9.79522C3.64565 9.79522 4.00057 9.94396 4.24414 10.1856C4.48402 10.4236 4.66963 10.8052 4.66963 11.3745ZM22.25 11.3745C22.25 11.9438 22.0643 12.3263 21.8241 12.5651C21.5803 12.8074 21.2254 12.9564 20.7902 12.9564C20.355 12.9564 20.0001 12.8074 19.7563 12.5651C19.516 12.3263 19.3304 11.9438 19.3304 11.3745C19.3304 10.8052 19.516 10.4236 19.7559 10.1856C19.9994 9.94396 20.3543 9.79522 20.7902 9.79522C21.226 9.79522 21.5809 9.94396 21.8245 10.1856C22.0644 10.4236 22.25 10.8052 22.25 11.3745ZM9.80077 6.30165C9.80077 6.87092 9.61515 7.25252 9.37527 7.49052C9.13171 7.73219 8.77678 7.88094 8.34095 7.88094C7.90511 7.88094 7.55019 7.73219 7.30662 7.49052C7.06675 7.25252 6.88113 6.87092 6.88113 6.30165C6.88113 5.7331 7.06609 5.36115 7.30192 5.13123C7.54277 4.89642 7.89812 4.75002 8.34095 4.75002C8.78378 4.75002 9.13913 4.89642 9.37997 5.13123C9.61581 5.36115 9.80077 5.7331 9.80077 6.30165ZM17.2098 6.30165C17.2098 6.87091 17.0242 7.25252 16.7843 7.49052C16.5408 7.73219 16.1859 7.88094 15.75 7.88094C15.3142 7.88094 14.9593 7.73219 14.7157 7.49052C14.4758 7.25252 14.2902 6.87091 14.2902 6.30165C14.2902 5.7331 14.4752 5.36115 14.711 5.13122C14.9518 4.89642 15.3072 4.75001 15.75 4.75001C16.1928 4.75001 16.5482 4.89642 16.789 5.13122C17.0249 5.36114 17.2098 5.7331 17.2098 6.30165Z"
    stroke="black"
    stroke-width="1.5"
  />
</svg>
