<svg width="16" height="16" viewBox="0 0 16 16" fill="none" xmlns="http://www.w3.org/2000/svg">
<g clip-path="url(#clip0_419_417)">
<path d="M8 0.5C8.98491 0.5 9.96018 0.693993 10.8701 1.0709C11.7801 1.44781 12.6069 2.00026 13.3033 2.6967C13.9997 3.39314 14.5522 4.21993 14.9291 5.12987C15.306 6.03982 15.5 7.01509 15.5 8C15.5 8.98491 15.306 9.96018 14.9291 10.8701C14.5522 11.7801 13.9997 12.6069 13.3033 13.3033C12.6069 13.9997 11.7801 14.5522 10.8701 14.9291C9.96018 15.306 8.98491 15.5 8 15.5C6.01088 15.5 4.10322 14.7098 2.6967 13.3033C1.29018 11.8968 0.5 9.98912 0.5 8C0.5 6.01088 1.29018 4.10322 2.6967 2.6967C4.10322 1.29018 6.01088 0.5 8 0.5ZM5.846 9H4.515C4.6851 9.59064 5.00231 10.1284 5.43693 10.5631C5.87155 10.9977 6.40936 11.3149 7 11.485V10.155C6.49138 9.91783 6.08273 9.50883 5.846 9ZM11.486 9H10.154C9.91733 9.50828 9.50908 9.91689 9.001 10.154V11.485C9.59127 11.3146 10.1287 10.9973 10.5629 10.5627C10.9972 10.1281 11.3141 9.59041 11.484 9H11.486ZM8 7C7.73478 7 7.48043 7.10536 7.29289 7.29289C7.10536 7.48043 7 7.73478 7 8C7 8.26522 7.10536 8.51957 7.29289 8.70711C7.48043 8.89464 7.73478 9 8 9C8.26522 9 8.51957 8.89464 8.70711 8.70711C8.89464 8.51957 9 8.26522 9 8C9 7.73478 8.89464 7.48043 8.70711 7.29289C8.51957 7.10536 8.26522 7 8 7ZM7 4.515C6.40936 4.6851 5.87155 5.00231 5.43693 5.43693C5.00231 5.87155 4.6851 6.40936 4.515 7H5.845C6.08198 6.491 6.491 6.08198 7 5.845V4.515ZM9 4.515V5.845C9.508 6.082 9.919 6.492 10.155 7H11.485C11.3149 6.40936 10.9977 5.87155 10.5631 5.43693C10.1284 5.00231 9.59064 4.6851 9 4.515ZM12 3.25C11.8011 3.25 11.6103 3.32902 11.4697 3.46967C11.329 3.61032 11.25 3.80109 11.25 4C11.25 4.19891 11.329 4.38968 11.4697 4.53033C11.6103 4.67098 11.8011 4.75 12 4.75C12.1989 4.75 12.3897 4.67098 12.5303 4.53033C12.671 4.38968 12.75 4.19891 12.75 4C12.75 3.80109 12.671 3.61032 12.5303 3.46967C12.3897 3.32902 12.1989 3.25 12 3.25Z" fill="black"/>
</g>
<defs>
<clipPath id="clip0_419_417">
<rect width="16" height="16" fill="white"/>
</clipPath>
</defs>
</svg>
