<svg
  width="24"
  height="24"
  viewBox="0 0 24 24"
  fill="none"
  xmlns="http://www.w3.org/2000/svg"
>
  <path
    d="M12 15.25C13.5188 15.25 14.75 16.4812 14.75 18C14.75 19.5188 13.5188 20.75 12 20.75C10.4812 20.75 9.24997 19.5188 9.24997 18C9.24997 16.4812 10.4812 15.25 12 15.25ZM12 16.75C11.3096 16.75 10.75 17.3097 10.75 18C10.75 18.6904 11.3096 19.25 12 19.25C12.6903 19.25 13.25 18.6904 13.25 18C13.25 17.3097 12.6903 16.75 12 16.75ZM12 11.2501C14.6377 11.2501 16.9219 12.7629 18.0325 14.9683L16.8967 16.1028C16.1361 14.141 14.2305 12.7501 12 12.7501C9.7696 12.7501 7.86402 14.141 7.10337 16.1028L5.968 14.9675C7.07869 12.7626 9.36274 11.2501 12 11.2501ZM12.0001 7.2502C15.7355 7.2502 19.0259 9.15536 20.9526 12.047L19.8672 13.1325C18.2362 10.5021 15.3228 8.7502 12.0001 8.7502C8.67748 8.7502 5.76401 10.5021 4.133 13.1325L3.04768 12.047C4.97439 9.15536 8.26477 7.2502 12.0001 7.2502ZM12 3.25C16.8383 3.25 21.1325 5.57953 23.8222 9.17816L22.7493 10.2514C20.3428 6.91883 16.4247 4.75 12 4.75C7.57561 4.75 3.65773 6.9185 1.2512 10.2506L0.178345 9.1774C2.86807 5.5792 7.16201 3.25 12 3.25Z"
    fill="black"
  />
</svg>
