<svg
  width="24"
  height="24"
  viewBox="0 0 32 32" 
  fill="none"
  xmlns="http://www.w3.org/2000/svg"
>
  <path 
    d="M24 27c.988 0 1.945.351 2.671 1.009.306.276.71.445 1.142.483L28 28.5v2l-.228-.006a3.96 3.96 0 0 1-2.443-1.003A1.978 1.978 0 0 0 24 29c-.502 0-.978.175-1.328.491a3.977 3.977 0 0 1-2.67 1.009 3.977 3.977 0 0 1-2.672-1.009A1.978 1.978 0 0 0 16 29c-.503 0-.98.175-1.329.491a3.978 3.978 0 0 1-2.67 1.009 3.978 3.978 0 0 1-2.672-1.008A1.978 1.978 0 0 0 8 29c-.503 0-.98.175-1.33.491a3.96 3.96 0 0 1-2.442 1.003L4 30.5v-2l.187-.008a1.953 1.953 0 0 0 1.142-.483A3.975 3.975 0 0 1 8 27c.988 0 1.945.352 2.671 1.009.35.316.826.49 1.33.491.502 0 .979-.175 1.328-.492A3.974 3.974 0 0 1 16 27c.988 0 1.945.351 2.671 1.009.35.316.826.49 1.33.491.502 0 .979-.175 1.328-.491A3.975 3.975 0 0 1 23.999 27zm0-5c.988 0 1.945.351 2.671 1.009.306.276.71.445 1.142.483L28 23.5v2l-.228-.006a3.96 3.96 0 0 1-2.443-1.003A1.978 1.978 0 0 0 24 24c-.502 0-.978.175-1.328.491a3.977 3.977 0 0 1-2.67 1.009 3.977 3.977 0 0 1-2.672-1.009A1.978 1.978 0 0 0 16 24c-.503 0-.98.175-1.329.491a3.978 3.978 0 0 1-2.67 1.009 3.978 3.978 0 0 1-2.672-1.008A1.978 1.978 0 0 0 8 24c-.503 0-.98.175-1.33.491a3.96 3.96 0 0 1-2.442 1.003L4 25.5v-2l.187-.008a1.953 1.953 0 0 0 1.142-.483A3.975 3.975 0 0 1 8 22c.988 0 1.945.352 2.671 1.009.35.316.826.49 1.33.491.502 0 .979-.175 1.328-.492A3.974 3.974 0 0 1 16 22c.988 0 1.945.351 2.671 1.009.35.316.826.49 1.33.491.502 0 .979-.175 1.328-.491A3.975 3.975 0 0 1 23.999 22zm0-5c.988 0 1.945.351 2.671 1.009.306.276.71.445 1.142.483L28 18.5v2l-.228-.006a3.96 3.96 0 0 1-2.443-1.003A1.978 1.978 0 0 0 24 19c-.502 0-.978.175-1.328.491a3.977 3.977 0 0 1-2.67 1.009 3.977 3.977 0 0 1-2.672-1.009A1.978 1.978 0 0 0 16 19c-.503 0-.98.175-1.329.491a3.978 3.978 0 0 1-2.67 1.009 3.978 3.978 0 0 1-2.672-1.008A1.978 1.978 0 0 0 8 19c-.503 0-.98.175-1.33.491a3.96 3.96 0 0 1-2.442 1.003L4 20.5v-2l.187-.008a1.953 1.953 0 0 0 1.142-.483A3.975 3.975 0 0 1 8 17c.988 0 1.945.352 2.671 1.009.35.316.826.49 1.33.491.502 0 .979-.175 1.328-.492A3.974 3.974 0 0 1 16 17c.988 0 1.945.351 2.671 1.009.35.316.826.49 1.33.491.502 0 .979-.175 1.328-.491A3.975 3.975 0 0 1 23.999 17zM16 1a9 9 0 0 1 8.76 11.072c.71.131 1.374.45 1.911.937.306.276.71.445 1.142.483L28 13.5v2l-.228-.006a3.96 3.96 0 0 1-2.443-1.003 1.951 1.951 0 0 0-1.142-.483l-.145-.007h-.084a2.001 2.001 0 0 0-1.15.378l-.137.112a3.977 3.977 0 0 1-2.67 1.009 3.977 3.977 0 0 1-2.672-1.009A1.978 1.978 0 0 0 16 14c-.503 0-.98.175-1.329.491a3.978 3.978 0 0 1-2.67 1.009 3.978 3.978 0 0 1-2.672-1.008 1.951 1.951 0 0 0-1.142-.484l-.145-.007h-.084a2.002 2.002 0 0 0-1.15.378l-.137.112a3.96 3.96 0 0 1-2.443 1.003L4 15.5v-2l.187-.008a1.953 1.953 0 0 0 1.142-.483 3.916 3.916 0 0 1 1.91-.939A9 9 0 0 1 16 1zm0 2a7 7 0 0 0-6.636 9.235c.482.168.926.429 1.307.774.35.316.826.49 1.33.491.502 0 .979-.175 1.328-.492A3.974 3.974 0 0 1 16 12c.988 0 1.945.351 2.671 1.009.35.316.826.49 1.33.491.439 0 .86-.134 1.191-.38l.137-.111c.38-.345.825-.606 1.304-.776A7 7 0 0 0 16 3z"
    fill="black"
  />
</svg>