<svg width="14" height="14" viewBox="0 0 14 14" fill="none" xmlns="http://www.w3.org/2000/svg">
<path d="M11.5 0C12.163 0 12.7989 0.263392 13.2678 0.732233C13.7366 1.20107 14 1.83696 14 2.5V11.5C14 12.163 13.7366 12.7989 13.2678 13.2678C12.7989 13.7366 12.163 14 11.5 14H2.5C1.83696 14 1.20107 13.7366 0.732233 13.2678C0.263392 12.7989 0 12.163 0 11.5V2.5C0 1.83696 0.263392 1.20107 0.732233 0.732233C1.20107 0.263392 1.83696 0 2.5 0H11.5ZM4.846 8H3.515C3.6851 8.59064 4.00231 9.12845 4.43693 9.56307C4.87155 9.99769 5.40936 10.3149 6 10.485V9.155C5.49138 8.91783 5.08273 8.50883 4.846 8ZM10.486 8H9.154C8.91733 8.50828 8.50908 8.91689 8.001 9.154V10.485C8.59127 10.3146 9.12867 9.99726 9.56292 9.56266C9.99717 9.12806 10.3141 8.59041 10.484 8H10.486ZM7 6C6.73478 6 6.48043 6.10536 6.29289 6.29289C6.10536 6.48043 6 6.73478 6 7C6 7.26522 6.10536 7.51957 6.29289 7.70711C6.48043 7.89464 6.73478 8 7 8C7.26522 8 7.51957 7.89464 7.70711 7.70711C7.89464 7.51957 8 7.26522 8 7C8 6.73478 7.89464 6.48043 7.70711 6.29289C7.51957 6.10536 7.26522 6 7 6ZM6 3.515C5.40936 3.6851 4.87155 4.00231 4.43693 4.43693C4.00231 4.87155 3.6851 5.40936 3.515 6H4.845C5.08198 5.491 5.491 5.08198 6 4.845V3.515ZM8 3.515V4.845C8.508 5.082 8.919 5.492 9.155 6H10.485C10.3149 5.40936 9.99769 4.87155 9.56307 4.43693C9.12845 4.00231 8.59064 3.6851 8 3.515ZM11.75 1.5C11.5511 1.5 11.3603 1.57902 11.2197 1.71967C11.079 1.86032 11 2.05109 11 2.25C11 2.44891 11.079 2.63968 11.2197 2.78033C11.3603 2.92098 11.5511 3 11.75 3C11.9489 3 12.1397 2.92098 12.2803 2.78033C12.421 2.63968 12.5 2.44891 12.5 2.25C12.5 2.05109 12.421 1.86032 12.2803 1.71967C12.1397 1.57902 11.9489 1.5 11.75 1.5Z" fill="black"/>
</svg>
