<svg
  width="24"
  height="24"
  viewBox="0 0 32 32" 
  fill="none"
  xmlns="http://www.w3.org/2000/svg"
>
  <path 
    d="M30 2v2h-8a5 5 0 0 0-4.995 4.783L17 9v5h9a4 4 0 0 1 3.995 3.8L30 18v8a4 4 0 0 1-3.8 3.995L26 30H6a4 4 0 0 1-3.995-3.8L2 26v-8a4 4 0 0 1 3.8-3.995L6 14h9V9a7 7 0 0 1 6.76-6.996L22 2h8zm-4 14H6a2 2 0 0 0-1.995 1.85L4 18v8a2 2 0 0 0 1.85 1.995L6 28h20a2 2 0 0 0 1.995-1.85L28 26v-8a2 2 0 0 0-1.85-1.995L26 16zm-15 3v2h2v2h-2v2H9v-2H7v-2h2v-2h2zm13 2a1 1 0 1 1 0 2 1 1 0 0 1 0-2zm-4 0a1 1 0 1 1 0 2 1 1 0 0 1 0-2z"
    fill="black"
  />
</svg>