<svg width="12" height="12" viewBox="0 0 12 12" fill="none" xmlns="http://www.w3.org/2000/svg">
<g clip-path="url(#clip0_419_299)">
<path d="M6 0C9.3 0 12 2.7 12 6C12 9.3 9.3 12 6 12C2.7 12 0 9.3 0 6C0 2.7 2.7 0 6 0ZM6 1C3.2 1 1 3.2 1 6C1 8.8 3.2 11 6 11C8.8 11 11 8.8 11 6C11 3.2 8.8 1 6 1ZM4.8 4.6L6.9 4.7L6.3 6.5L5.9 7.9C5.8 8.1 5.8 8.3 5.7 8.4L5.6 8.5L6.9 8L6.7 8.8L6.5 8.9L6.2 9.1L6 9.2C5.9 9.3 5.8 9.3 5.7 9.4C5.4 9.5 5.2 9.6 5 9.6C4.7 9.6 4.5 9.4 4.5 9.1V9V8.9V8.7L4.6 8.4L4.7 8.1L4.8 7.6L5 7L5.1 6.6L5.2 6.2L5.3 5.9C5.3 5.8 5.4 5.7 5.4 5.7V5.6L4.3 5.5L4.5 4.9L4.8 4.6ZM7.4 2.5V2.6L7 3.8L5.9 3.7L6.3 2.5H7.4Z" fill="#717171"/>
</g>
<defs>
<clipPath id="clip0_419_299">
<rect width="12" height="12" fill="white"/>
</clipPath>
</defs>
</svg>
