<svg width="16" height="16" viewBox="0 0 16 16" fill="none" xmlns="http://www.w3.org/2000/svg">
<g clip-path="url(#clip0_419_463)">
<path fill-rule="evenodd" clip-rule="evenodd" d="M15.3933 0.606667C14.9867 0.2 14.5067 0 13.9467 0H2.05333C1.48667 0 1.00667 0.2 0.606667 0.606667C0.206667 1.01333 0 1.49333 0 2.05333V13.9467C0 14.5133 0.2 14.9933 0.606667 15.3933C1.01333 15.7933 1.49333 16 2.05333 16H13.9467C14.5133 16 14.9933 15.8 15.3933 15.3933C15.7933 14.9867 16 14.5067 16 13.9467V2.05333C16 1.48667 15.8 1.00667 15.3933 0.606667ZM5.74 5.76667C6.36667 5.16 7.12667 4.85333 8.00667 4.85333C8.89333 4.85333 9.65333 5.16 10.28 5.76667C10.9067 6.37333 11.22 7.10667 11.22 7.96667C11.22 8.82667 10.9067 9.56 10.28 10.1667C9.65333 10.7733 8.89333 11.08 8.00667 11.08C7.12667 11.08 6.36667 10.7733 5.74 10.1667C5.11333 9.56 4.8 8.82667 4.8 7.96667C4.8 7.10667 5.11333 6.37333 5.74 5.76667ZM14.18 13.52C14.18 13.7 14.12 13.8533 13.9933 13.9733C13.9354 14.0331 13.866 14.0805 13.7892 14.1126C13.7124 14.1447 13.6299 14.1608 13.5467 14.16H2.41333C2.32905 14.1613 2.24538 14.1455 2.16743 14.1134C2.08949 14.0813 2.01891 14.0336 1.96 13.9733C1.90059 13.9141 1.85396 13.8433 1.823 13.7653C1.79204 13.6874 1.7774 13.6039 1.78 13.52V6.76667H3.24667C3.1077 7.20884 3.03799 7.66985 3.04 8.13333C3.04 9.46667 3.52667 10.6067 4.5 11.5467C5.47333 12.4867 6.64 12.96 8.01333 12.96C8.88891 12.9671 9.751 12.7441 10.5133 12.3133C11.2616 11.8987 11.8871 11.2938 12.3267 10.56C12.768 9.83032 12.9987 8.99273 12.9933 8.14C12.9933 7.66667 12.92 7.21333 12.7867 6.77333H14.1933V13.52H14.18ZM14.18 4.22C14.18 4.42 14.1067 4.59333 13.9733 4.73333C13.9063 4.80086 13.8262 4.85401 13.738 4.88955C13.6497 4.92508 13.5551 4.94225 13.46 4.94H11.6467C11.4467 4.94 11.2733 4.86667 11.1333 4.73333C11.0658 4.66631 11.0127 4.58622 10.9771 4.49796C10.9416 4.4097 10.9244 4.31512 10.9267 4.22V2.5C10.9267 2.30667 11 2.14 11.1333 1.99333C11.2667 1.84667 11.4467 1.78 11.6467 1.78H13.46C13.66 1.78 13.8333 1.85333 13.9733 1.99333C14.1133 2.13333 14.18 2.30667 14.18 2.5V4.22Z" fill="black"/>
</g>
<defs>
<clipPath id="clip0_419_463">
<rect width="16" height="16" fill="white"/>
</clipPath>
</defs>
</svg>
