<svg width="16" height="16" viewBox="0 0 16 16" fill="none" xmlns="http://www.w3.org/2000/svg">
<circle cx="8" cy="8" r="7.5" stroke="#222222"/>
<mask id="path-2-inside-1_346_485" fill="white">
<path d="M8.03072 15.7093C6.85648 15.2358 5.82358 14.2085 5.09419 12.7887C4.36479 11.3689 3.9802 9.637 4.00078 7.86486C4.02137 6.09271 4.44597 4.38068 5.20792 2.99754C5.96987 1.6144 7.02603 0.638464 8.2106 0.222949L8.46149 1.73623C7.50742 2.07089 6.65677 2.85693 6.04308 3.97093C5.42939 5.08494 5.08742 6.46384 5.07084 7.89115C5.05426 9.31847 5.36402 10.7134 5.95149 11.8569C6.53895 13.0004 7.37086 13.8278 8.31662 14.2092L8.03072 15.7093Z"/>
</mask>
<path d="M8.03072 15.7093C6.85648 15.2358 5.82358 14.2085 5.09419 12.7887C4.36479 11.3689 3.9802 9.637 4.00078 7.86486C4.02137 6.09271 4.44597 4.38068 5.20792 2.99754C5.96987 1.6144 7.02603 0.638464 8.2106 0.222949L8.46149 1.73623C7.50742 2.07089 6.65677 2.85693 6.04308 3.97093C5.42939 5.08494 5.08742 6.46384 5.07084 7.89115C5.05426 9.31847 5.36402 10.7134 5.95149 11.8569C6.53895 13.0004 7.37086 13.8278 8.31662 14.2092L8.03072 15.7093Z" stroke="#222222" stroke-width="2" mask="url(#path-2-inside-1_346_485)"/>
<mask id="path-3-inside-2_346_485" fill="white">
<path d="M7.96928 0.290743C9.14352 0.764225 10.1764 1.7915 10.9058 3.21129C11.6352 4.63108 12.0198 6.363 11.9992 8.13514C11.9786 9.90729 11.554 11.6193 10.7921 13.0025C10.0301 14.3856 8.97397 15.3615 7.7894 15.7771L7.53851 14.2638C8.49258 13.9291 9.34323 13.1431 9.95692 12.0291C10.5706 10.9151 10.9126 9.53616 10.9292 8.10885C10.9457 6.68153 10.636 5.28661 10.0485 4.14309C9.46105 2.99957 8.62914 2.17218 7.68338 1.79083L7.96928 0.290743Z"/>
</mask>
<path d="M7.96928 0.290743C9.14352 0.764225 10.1764 1.7915 10.9058 3.21129C11.6352 4.63108 12.0198 6.363 11.9992 8.13514C11.9786 9.90729 11.554 11.6193 10.7921 13.0025C10.0301 14.3856 8.97397 15.3615 7.7894 15.7771L7.53851 14.2638C8.49258 13.9291 9.34323 13.1431 9.95692 12.0291C10.5706 10.9151 10.9126 9.53616 10.9292 8.10885C10.9457 6.68153 10.636 5.28661 10.0485 4.14309C9.46105 2.99957 8.62914 2.17218 7.68338 1.79083L7.96928 0.290743Z" stroke="#222222" stroke-width="2" mask="url(#path-3-inside-2_346_485)"/>
<line y1="8.5" x2="16" y2="8.5" stroke="#222222"/>
</svg>
