<svg width="16" height="16" viewBox="0 0 16 16" fill="none" xmlns="http://www.w3.org/2000/svg">
<path d="M12.121 9.49998H13.5V10.879L12.121 9.49998ZM11.5 7.49998C12.0515 7.49998 12.5 7.94848 12.5 8.49998H13.5C13.5 7.39698 12.603 6.49998 11.5 6.49998H9.121L10.121 7.49998H11.5ZM14.5 11.879L15.5 12.879V9.49998H14.5V11.879ZM9 2.49998V1.49998C7.682 1.49998 6.5625 2.35498 6.1605 3.53948L7.011 4.38998C7.07 3.33898 7.935 2.49998 9 2.49998ZM2 9.49998C1.4485 9.49998 1 9.94848 1 10.5V12.5C1 13.0515 1.4485 13.5 2 13.5H11.879L7.879 9.49998H2ZM14.5 8.49998H15.5C15.5 6.68548 14.2855 5.14948 12.627 4.66148C12.8702 4.32307 13.0007 3.91671 13 3.49998C13 2.39698 12.103 1.49998 11 1.49998V2.49998C11.5515 2.49998 12 2.94848 12 3.49998C12 4.05148 11.5515 4.49998 11 4.49998V5.49998H11.5C13.1545 5.49998 14.5 6.84548 14.5 8.49998ZM1.6465 1.85348L14.6465 14.8535L15.3535 14.1465L2.3535 1.14648L1.6465 1.85348Z" fill="black"/>
</svg>
