<svg
  width="16"
  height="16"
  viewBox="0 0 16 16"
  fill="none"
  xmlns="http://www.w3.org/2000/svg"
>
  <path
    d="M14 3H8.5V2C8.5 1.73478 8.39464 1.48043 8.20711 1.29289C8.01957 1.10536 7.76522 1 7.5 1H1.5V15H2.5V9H7.5V10C7.5 10.2652 7.60536 10.5196 7.79289 10.7071C7.98043 10.8946 8.23478 11 8.5 11H14L14.0575 10.997C14.1296 10.9887 14.1991 10.9648 14.261 10.927C14.323 10.8891 14.3759 10.8382 14.4162 10.7779C14.4565 10.7175 14.4832 10.649 14.4944 10.5773C14.5056 10.5056 14.501 10.4323 14.481 10.3625L13.5195 7L14.481 3.638C14.5024 3.56353 14.5062 3.4851 14.4921 3.40892C14.4779 3.33273 14.4463 3.26087 14.3997 3.199C14.353 3.13713 14.2926 3.08695 14.2233 3.05241C14.1539 3.01788 14.0775 2.99993 14 3Z"
    fill="black"
  />
</svg>
