<svg
  width="14"
  height="14"
  viewBox="0 0 14 14"
  fill="none"
  xmlns="http://www.w3.org/2000/svg"
>
  <path
    d="M6.49227 1.38608C6.65208 0.871305 7.34792 0.871306 7.50773 1.38608L8.55815 4.7697C8.62962 4.99991 8.8346 5.15578 9.06588 5.15578H12.4651C12.9823 5.15578 13.1973 5.84841 12.7789 6.16656L10.0289 8.25775C9.84175 8.40003 9.76346 8.65223 9.83493 8.88245L10.8854 12.2661C11.0452 12.7808 10.4822 13.2089 10.0638 12.8908L7.31379 10.7996C7.12668 10.6573 6.87332 10.6573 6.68621 10.7996L3.93616 12.8908C3.51777 13.2089 2.95483 12.7808 3.11464 12.2661L4.16507 8.88245C4.23654 8.65223 4.15824 8.40003 3.97113 8.25775L1.22109 6.16656C0.802697 5.84841 1.01772 5.15578 1.53488 5.15578H4.93412C5.1654 5.15578 5.37038 4.99991 5.44185 4.7697L6.49227 1.38608Z"
    fill="black"
  />
</svg>
