<svg
  width="24"
  heigh="24"
  viewBox="0 0 24 24"
  fill="none"
  xmlns="http://www.w3.org/2000/svg"
>
  <path
    d="M4.40737 10.072C4.26337 10.072 4.14637 10.039 4.05637 9.973C3.97237 9.907 3.92137 9.82 3.90337 9.712C3.88537 9.598 3.90637 9.472 3.96637 9.334L6.34237 4.069C6.42037 3.895 6.51337 3.772 6.62137 3.7C6.73537 3.622 6.86437 3.583 7.00837 3.583C7.14637 3.583 7.26937 3.622 7.37737 3.7C7.49137 3.772 7.58737 3.895 7.66537 4.069L10.0504 9.334C10.1164 9.472 10.1404 9.598 10.1224 9.712C10.1044 9.826 10.0534 9.916 9.96937 9.982C9.88537 10.042 9.77437 10.072 9.63637 10.072C9.46837 10.072 9.33637 10.033 9.24037 9.955C9.15037 9.871 9.06937 9.745 8.99737 9.577L8.41237 8.218L8.89837 8.533H5.10037L5.58637 8.218L5.01037 9.577C4.93237 9.751 4.85137 9.877 4.76737 9.955C4.68337 10.033 4.56337 10.072 4.40737 10.072ZM6.99037 4.906L5.73037 7.903L5.49637 7.615H8.50237L8.27737 7.903L7.00837 4.906H6.99037Z"
    fill="black"
  />
  <rect
    x="10.2823"
    y="10.2823"
    width="13.3176"
    height="13.3176"
    rx="0.6"
    fill="black"
    stroke="black"
    stroke-width="0.8"
  />
  <rect
    x="0.4"
    y="0.4"
    width="13.3176"
    height="13.3176"
    rx="0.6"
    stroke="black"
    stroke-width="0.8"
  />
  <path
    d="M18.719 14.366C17.783 17.3 15.848 18.965 12.734 19.784C12.95 20.045 13.292 20.567 13.418 20.837C16.64 19.829 18.737 17.939 19.871 14.699L18.719 14.366ZM15.245 14.438L14.165 14.762C15.29 17.876 17.144 19.937 20.519 20.819C20.69 20.504 21.041 19.991 21.302 19.739C18.098 19.019 16.154 17.102 15.245 14.438ZM12.896 13.781V14.843H21.14V13.781H12.896ZM16.433 12.359V14.429H17.549V12.359H16.433Z"
    fill="white"
  />
</svg>

