<svg width="16" height="16" viewBox="0 0 16 16" fill="none" xmlns="http://www.w3.org/2000/svg">
<path fill-rule="evenodd" clip-rule="evenodd" d="M15.5 3.18C14.92 3.425 14.34 3.59 13.725 3.655C14.37 3.275 14.835 2.72 15.085 1.965C14.4783 2.32036 13.8181 2.57531 13.13 2.72C12.515 2.08 11.755 1.75 10.875 1.75C9.17 1.75 7.79 3.115 7.79 4.81C7.79 5.055 7.825 5.285 7.875 5.5C5.405 5.385 3.12 4.2 1.545 2.31C1.265 2.785 1.115 3.295 1.115 3.855C1.115 4.89 1.63 5.81 2.49 6.385C1.99 6.37 1.53 6.235 1.08 6.005V6.04C1.08 7.485 2.14 8.75 3.55 9.03C3.235 9.115 2.97 9.145 2.74 9.145C2.59 9.145 2.39 9.13 2.175 9.08C2.36822 9.69116 2.74998 10.2255 3.26556 10.6063C3.78113 10.9871 4.40404 11.195 5.045 11.2C3.935 12.07 2.655 12.515 1.215 12.515C0.935 12.515 0.685 12.5 0.5 12.465C1.925 13.385 3.5 13.845 5.205 13.845C8.85 13.845 11.62 11.84 12.96 9.195C13.64 7.865 13.97 6.515 13.97 5.15V4.92C13.955 4.835 13.955 4.77 13.955 4.755C14.5587 4.323 15.0816 3.78818 15.5 3.175" fill="black"/>
</svg>
