<svg
  width="24"
  height="24"
  viewBox="0 0 24 24"
  fill="none"
  xmlns="http://www.w3.org/2000/svg"
>
  <path
    d="M21 1.5C21.3978 1.5 21.7794 1.65804 22.0607 1.93934C22.342 2.22064 22.5 2.60218 22.5 3V21C22.5 21.3978 22.342 21.7794 22.0607 22.0607C21.7794 22.342 21.3978 22.5 21 22.5H3C2.60218 22.5 2.22064 22.342 1.93934 22.0607C1.65804 21.7794 1.5 21.3978 1.5 21V3C1.5 2.60218 1.65804 2.22064 1.93934 1.93934C2.22064 1.65804 2.60218 1.5 3 1.5H21ZM21 3H3V14.6243L3.14025 14.619C3.4185 14.5943 3.68025 14.4983 3.894 14.34L3.99675 14.2568C4.54773 13.7651 5.26157 13.4954 6 13.5C6.741 13.5 7.45875 13.764 8.00325 14.2568C8.26575 14.4938 8.62275 14.6243 9.00075 14.625C9.37725 14.625 9.735 14.4937 9.99675 14.256C10.5478 13.7646 11.2617 13.4952 12 13.5C12.741 13.5 13.4587 13.7633 14.0033 14.2568C14.2657 14.4938 14.6227 14.6243 15.0007 14.625C15.3772 14.625 15.735 14.4938 15.9967 14.2568C16.5475 13.7653 17.2611 13.4956 17.9993 13.5C18.741 13.5 19.4587 13.7633 20.0033 14.2568C20.2657 14.4938 20.6235 14.6243 21.0007 14.625L21 16.125L20.829 16.1205C20.1502 16.0868 19.5034 15.8213 18.9967 15.3682C18.7214 15.1266 18.3663 14.9955 18 15C17.6235 15 17.2665 15.1312 17.004 15.3682C16.4531 15.8596 15.7396 16.1292 15.0015 16.125C14.2628 16.1296 13.5488 15.8599 12.9975 15.3682C12.7219 15.1265 12.3666 14.9953 12 15C11.6228 15 11.265 15.1312 11.0033 15.3682C10.4523 15.8595 9.73888 16.1292 9.00075 16.125C8.2622 16.1297 7.54815 15.8604 6.99675 15.369C6.72148 15.1271 6.36642 14.9957 6 15C5.62275 15 5.265 15.1312 5.0025 15.3682C4.45167 15.8597 3.73816 16.1293 3 16.125V18.3743L3.14025 18.369C3.4185 18.3442 3.68025 18.2483 3.894 18.09L3.99675 18.0068C4.54773 17.5151 5.26157 17.2454 6 17.25C6.741 17.25 7.45875 17.514 8.00325 18.0068C8.26575 18.2438 8.62275 18.3743 9.00075 18.375C9.37725 18.375 9.735 18.2437 9.99675 18.006C10.5478 17.5146 11.2617 17.2452 12 17.25C12.741 17.25 13.4587 17.5133 14.0033 18.0068C14.2657 18.2438 14.6227 18.3743 15.0007 18.375C15.3772 18.375 15.735 18.2438 15.9967 18.0068C16.5475 17.5153 17.2611 17.2456 17.9993 17.25C18.741 17.25 19.4587 17.5133 20.0033 18.0068C20.2657 18.2438 20.6235 18.3743 21.0007 18.375L21 19.875L20.829 19.8705C20.1502 19.8368 19.5034 19.5713 18.9967 19.1182C18.7214 18.8766 18.3663 18.7455 18 18.75C17.6235 18.75 17.2665 18.8812 17.004 19.1182C16.4531 19.6096 15.7396 19.8792 15.0015 19.875C14.2628 19.8796 13.5488 19.6099 12.9975 19.1182C12.7219 18.8765 12.3666 18.7453 12 18.75C11.6228 18.75 11.265 18.8812 11.0033 19.1182C10.4523 19.6095 9.73888 19.8792 9.00075 19.875C8.2622 19.8797 7.54815 19.6104 6.99675 19.119C6.72148 18.8771 6.36642 18.7457 6 18.75C5.62275 18.75 5.265 18.8812 5.0025 19.1182C4.45167 19.6097 3.73816 19.8793 3 19.875V21H21V3ZM16.5 5.25C17.0967 5.25 17.669 5.48705 18.091 5.90901C18.5129 6.33097 18.75 6.90326 18.75 7.5C18.75 8.09674 18.5129 8.66903 18.091 9.09099C17.669 9.51295 17.0967 9.75 16.5 9.75C15.9033 9.75 15.331 9.51295 14.909 9.09099C14.4871 8.66903 14.25 8.09674 14.25 7.5C14.25 6.90326 14.4871 6.33097 14.909 5.90901C15.331 5.48705 15.9033 5.25 16.5 5.25ZM16.5 6.75C16.3011 6.75 16.1103 6.82902 15.9697 6.96967C15.829 7.11032 15.75 7.30109 15.75 7.5C15.75 7.69891 15.829 7.88968 15.9697 8.03033C16.1103 8.17098 16.3011 8.25 16.5 8.25C16.6989 8.25 16.8897 8.17098 17.0303 8.03033C17.171 7.88968 17.25 7.69891 17.25 7.5C17.25 7.30109 17.171 7.11032 17.0303 6.96967C16.8897 6.82902 16.6989 6.75 16.5 6.75Z"
    fill="black"
  />
</svg>
