<svg width="16" height="16" viewBox="0 0 16 16" fill="none" xmlns="http://www.w3.org/2000/svg">
<path d="M7.5 4C7.5 4.53043 7.28929 5.03914 6.91421 5.41421C6.53914 5.78929 6.03043 6 5.5 6C4.96957 6 4.46086 5.78929 4.08579 5.41421C3.71071 5.03914 3.5 4.53043 3.5 4C3.5 3.46957 3.71071 2.96086 4.08579 2.58579C4.46086 2.21071 4.96957 2 5.5 2C6.03043 2 6.53914 2.21071 6.91421 2.58579C7.28929 2.96086 7.5 3.46957 7.5 4V4ZM10.5 6C11.0304 6 11.5391 5.78929 11.9142 5.41421C12.2893 5.03914 12.5 4.53043 12.5 4C12.5 3.46957 12.2893 2.96086 11.9142 2.58579C11.5391 2.21071 11.0304 2 10.5 2C9.96957 2 9.46086 2.21071 9.08579 2.58579C8.71071 2.96086 8.5 3.46957 8.5 4C8.5 4.53043 8.71071 5.03914 9.08579 5.41421C9.46086 5.78929 9.96957 6 10.5 6ZM15.5 8C15.5 7.46957 15.2893 6.96086 14.9142 6.58579C14.5391 6.21071 14.0304 6 13.5 6C12.9696 6 12.4609 6.21071 12.0858 6.58579C11.7107 6.96086 11.5 7.46957 11.5 8C11.5 8.53043 11.7107 9.03914 12.0858 9.41421C12.4609 9.78929 12.9696 10 13.5 10C14.0304 10 14.5391 9.78929 14.9142 9.41421C15.2893 9.03914 15.5 8.53043 15.5 8ZM0.5 8C0.5 8.53043 0.710714 9.03914 1.08579 9.41421C1.46086 9.78929 1.96957 10 2.5 10C3.03043 10 3.53914 9.78929 3.91421 9.41421C4.28929 9.03914 4.5 8.53043 4.5 8C4.5 7.46957 4.28929 6.96086 3.91421 6.58579C3.53914 6.21071 3.03043 6 2.5 6C1.96957 6 1.46086 6.21071 1.08579 6.58579C0.710714 6.96086 0.5 7.46957 0.5 8V8ZM4.4625 13.6125L4.561 13.6775C4.79326 13.8218 5.05264 13.9169 5.32311 13.9569C5.59357 13.997 5.86938 13.9812 6.1335 13.9105L8 13.41L9.8665 13.9105C10.2635 14.0168 10.6837 13.9982 11.0698 13.8573C11.4559 13.7163 11.7892 13.4598 12.0243 13.1226C12.2594 12.7855 12.385 12.3841 12.3839 11.9731C12.3827 11.562 12.255 11.1613 12.018 10.8255L9.634 7.4475C9.33871 7.02915 8.8942 6.74 8.39206 6.63963C7.88993 6.53926 7.36842 6.63531 6.935 6.908L6.8465 6.967C6.66028 7.09863 6.49794 7.26114 6.3665 7.4475L3.9815 10.825C3.83003 11.0396 3.72232 11.2819 3.66451 11.5382C3.60671 11.7944 3.59995 12.0595 3.64461 12.3184C3.68928 12.5772 3.7845 12.8247 3.92483 13.0468C4.06517 13.2688 4.24787 13.4611 4.4625 13.6125V13.6125Z" fill="black"/>
</svg>
