<svg
  width="24"
  height="24"
  viewBox="0 0 24 24"
  fill="none"
  xmlns="http://www.w3.org/2000/svg"
>
  <path
    d="M19.5 1.5C19.6476 1.49995 19.792 1.54348 19.915 1.62513C20.038 1.70678 20.1342 1.82292 20.1915 1.959L20.2215 2.04375L21.7215 7.29375C21.7515 7.39843 21.7584 7.50838 21.7416 7.61597C21.7248 7.72356 21.6848 7.82621 21.6243 7.91678C21.5639 8.00735 21.4844 8.08367 21.3915 8.14044C21.2986 8.1972 21.1944 8.23306 21.0863 8.2455L21 8.25H18.75V12H23.25V13.5H21.75V23.25H20.25L20.2507 21.348C19.8544 21.5777 19.4104 21.7129 18.9533 21.7432L18.75 21.75H5.25C4.72337 21.7508 4.20588 21.6124 3.75 21.3488V23.25H2.25V13.5H0.75V12H4.5V9C4.50002 8.8163 4.56747 8.639 4.68954 8.50172C4.81161 8.36444 4.97981 8.27674 5.16225 8.25525L5.25 8.25H5.4285L4.5645 6.3045L5.9355 5.6955L7.07025 8.25H9C9.1837 8.25002 9.361 8.31747 9.49828 8.43954C9.63556 8.56161 9.72326 8.72981 9.74475 8.91225L9.75 9V12H17.25V8.25H15C14.8912 8.25002 14.7837 8.22638 14.685 8.18071C14.5863 8.13505 14.4986 8.06845 14.4282 7.98554C14.3578 7.90263 14.3062 7.80539 14.2772 7.70056C14.2481 7.59574 14.2421 7.48585 14.2598 7.3785L14.2785 7.29375L15.7785 2.04375C15.8191 1.9018 15.9006 1.77498 16.013 1.67919C16.1253 1.5834 16.2634 1.52289 16.41 1.50525L16.5 1.5H19.5ZM20.25 13.5H3.75V18.75C3.74998 19.1085 3.87833 19.4551 4.11181 19.7271C4.34528 19.9991 4.66843 20.1784 5.02275 20.2327L5.13825 20.2463L5.25 20.25H18.75C19.1284 20.2501 19.4929 20.1072 19.7704 19.8499C20.0479 19.5926 20.2179 19.2399 20.2463 18.8625L20.25 18.75V13.5ZM8.25 9.75H6V12H8.25V9.75ZM18.9338 3H17.0655L15.9938 6.75H20.0055L18.9338 3Z"
    fill="black"
  />
</svg>
