<svg width="16" height="16" viewBox="0 0 16 16" fill="none" xmlns="http://www.w3.org/2000/svg">
<path fill-rule="evenodd" clip-rule="evenodd" d="M4 7.205V5.12C4 4.91 4.175 4.715 4.385 4.715H5.645V3.675C5.645 1.255 6.885 0.02 9.355 0C10.18 0 10.965 0.105 11.7 0.32C11.93 0.39 12.015 0.53 12 0.76L11.72 2.79C11.7 2.88 11.65 2.965 11.56 3.055C11.455 3.11 11.35 3.145 11.245 3.125C10.805 3 10.355 2.95 9.845 2.95C9.145 2.95 9.04 3.09 9.04 3.815V4.715H11.3C11.51 4.715 11.705 4.925 11.705 5.155L11.53 7.24C11.53 7.45 11.355 7.595 11.145 7.595H9.04V15.595C9.04 15.805 8.865 16 8.655 16H6.05C5.84 16 5.65 15.805 5.65 15.595V7.595H4.39C4.28657 7.595 4.18737 7.55391 4.11423 7.48077C4.04109 7.40763 4 7.30843 4 7.205Z" fill="black"/>
</svg>
