<svg
  width="24"
  height="24"
  viewBox="0 0 32 32" 
  fill="none"
  xmlns="http://www.w3.org/2000/svg"
>
  <path 
    d="M15 19.243l2 2v3.417l5.026 2.902-1 1.732L17 26.97V31h-2v-4.031l-4.026 2.325-1-1.732L15 24.66v-5.417zM3.707 2.293l26 26-1.414 1.414-26-26 1.414-1.414zm-.733 14.27l5.025 2.9 4.578-2.643 1.465 1.464L9 21.195V27H7v-4.65l-3.49 2.016-1-1.732 3.489-2.016-4.025-2.324 1-1.732zm26.052 0l1 1.731L26 20.618l3.49 2.016-.956 1.657-5.23-5.229.697.402 5.025-2.902zM25 5v4.648l3.49-2.014 1 1.732L26 11.381l4.026 2.325-1 1.732L24 12.535l-4.58 2.644-1.463-1.465L23 10.803V5h2zM3.466 7.708l5.227 5.227-.693-.4-5.026 2.903-1-1.732L6 11.38 2.51 9.366l.956-1.658zM17 1v4.03l4.026-2.324 1 1.732L17 7.339v5.419l-2-2V7.339L9.974 4.438l1-1.732L15 5.03V1h2z"
    fill="black"
  />
</svg>