<svg width="97" height="30" viewBox="0 0 97 30" fill="none" xmlns="http://www.w3.org/2000/svg">
<mask id="path-1-inside-1_494_927" fill="white">
<path d="M49.3141 27.5083C47.9513 27.5083 46.7533 27.1701 45.7202 26.4937C44.7091 25.8174 44.0386 24.9119 43.7089 23.7773L44.0716 22.959V25.3482C44.0716 26.0246 43.8958 26.5483 43.5441 26.9192C43.1924 27.2683 42.6978 27.4429 42.0603 27.4429C41.4009 27.4429 40.8953 27.2683 40.5436 26.9192C40.1919 26.5483 40.0161 26.0246 40.0161 25.3482V5.90741C40.0161 5.23101 40.1919 4.71826 40.5436 4.36916C40.8953 4.02005 41.4009 3.8455 42.0603 3.8455C42.7198 3.8455 43.2253 4.02005 43.577 4.36916C43.9507 4.71826 44.1376 5.23101 44.1376 5.90741V14.4169H43.7419C44.0936 13.3477 44.775 12.4859 45.7862 11.8313C46.7973 11.1767 47.9733 10.8494 49.3141 10.8494C50.7429 10.8494 51.9849 11.1876 53.0399 11.864C54.095 12.5404 54.9193 13.5005 55.5128 14.7441C56.1063 15.966 56.4031 17.4388 56.4031 19.1625C56.4031 20.8644 56.1063 22.3481 55.5128 23.6136C54.9193 24.8573 54.0841 25.8174 53.007 26.4937C51.9519 27.1701 50.7209 27.5083 49.3141 27.5083ZM48.1601 24.3991C48.9734 24.3991 49.6878 24.2027 50.3033 23.81C50.9188 23.4172 51.3914 22.839 51.7211 22.0754C52.0728 21.2899 52.2486 20.3189 52.2486 19.1625C52.2486 17.417 51.8749 16.1188 51.1276 15.2678C50.3802 14.395 49.3911 13.9587 48.1601 13.9587C47.3468 13.9587 46.6324 14.155 46.017 14.5478C45.4015 14.9187 44.9179 15.4969 44.5662 16.2824C44.2365 17.0461 44.0716 18.0061 44.0716 19.1625C44.0716 20.8862 44.4453 22.1954 45.1927 23.09C45.94 23.9627 46.9292 24.3991 48.1601 24.3991Z"/>
<path d="M65.9191 27.5083C64.2705 27.5083 62.8417 27.2465 61.6327 26.7228C60.4237 26.1992 59.4895 25.4792 58.8301 24.5628C58.1927 23.6245 57.8739 22.5336 57.8739 21.2899C57.8739 20.548 57.9728 19.8607 58.1707 19.228C58.3905 18.5734 58.6982 17.9734 59.0939 17.4279C59.5115 16.8606 60.0061 16.3369 60.5776 15.8569C61.1711 15.3551 61.8415 14.886 62.5889 14.4496L63.7099 13.795L63.1164 14.6787C62.1493 13.7187 61.4459 12.8132 61.0062 11.9622C60.5886 11.0894 60.3798 10.1949 60.3798 9.27846C60.3798 8.1875 60.6436 7.22746 61.1711 6.39834C61.6987 5.56921 62.446 4.92555 63.4132 4.46735C64.3804 4.00914 65.5124 3.78004 66.8093 3.78004C68.6117 3.78004 70.0405 4.23824 71.0956 5.15465C72.1507 6.04923 72.6783 7.2711 72.6783 8.82026C72.6783 9.64939 72.5134 10.4349 72.1837 11.1767C71.854 11.9186 71.3264 12.6277 70.601 13.3041C69.8757 13.9805 68.9085 14.646 67.6995 15.3005L67.7325 14.3187L73.3377 20.2426H72.4475C72.7332 19.7625 72.986 19.2389 73.2058 18.6716C73.4256 18.0825 73.6125 17.4606 73.7664 16.8061C73.9422 16.1297 74.0741 15.4315 74.162 14.7114C74.2499 14.1659 74.4368 13.7623 74.7225 13.5005C75.0083 13.2168 75.4149 13.075 75.9425 13.075C76.514 13.075 76.9426 13.2386 77.2284 13.5659C77.5141 13.8714 77.624 14.3187 77.5581 14.9078C77.4482 15.9333 77.2614 16.9152 76.9976 17.8534C76.7558 18.7698 76.448 19.6316 76.0744 20.4389C75.7007 21.2244 75.283 21.9554 74.8214 22.6318L74.7885 21.6172L77.9208 24.7591C78.3384 25.1737 78.5472 25.5883 78.5472 26.0028C78.5472 26.4174 78.3824 26.7665 78.0527 27.0501C77.7449 27.312 77.3163 27.4429 76.7668 27.4429C76.2832 27.4429 75.8875 27.3556 75.5798 27.181C75.2721 26.9847 74.9313 26.701 74.5577 26.3301L72.5134 24.2027H73.4696C72.5024 25.2282 71.3594 26.0355 70.0405 26.6247C68.7436 27.2138 67.3698 27.5083 65.9191 27.5083ZM66.1499 24.2682C67.2049 24.2682 68.1391 24.0718 68.9524 23.6791C69.7877 23.2645 70.5461 22.6536 71.2275 21.8463L71.1286 22.8936L64.3364 15.9224L66.0509 16.086L65.0948 16.6424C64.3474 17.0788 63.7429 17.5152 63.2813 17.9516C62.8197 18.3661 62.479 18.8243 62.2592 19.3262C62.0614 19.8062 61.9624 20.3517 61.9624 20.9626C61.9624 21.9881 62.3251 22.7954 63.0505 23.3845C63.7759 23.9736 64.809 24.2682 66.1499 24.2682ZM66.8093 6.69289C66.018 6.69289 65.3805 6.922 64.8969 7.3802C64.4133 7.81658 64.1715 8.4166 64.1715 9.18027C64.1715 9.59484 64.2375 9.98758 64.3694 10.3585C64.5013 10.7076 64.7321 11.1004 65.0618 11.5367C65.3915 11.9513 65.8421 12.4641 66.4136 13.075L65.4904 13.0095C66.4136 12.4859 67.139 12.0168 67.6666 11.6022C68.2161 11.1876 68.6117 10.7731 68.8535 10.3585C69.0953 9.94394 69.2162 9.48574 69.2162 8.9839C69.2162 8.24205 68.9964 7.67475 68.5568 7.28201C68.1172 6.88927 67.5347 6.69289 66.8093 6.69289Z"/>
<path d="M89.711 27.5083C88.3482 27.5083 87.1502 27.1701 86.1171 26.4937C85.106 25.8174 84.4356 24.9119 84.1058 23.7773L84.4685 22.959V25.3482C84.4685 26.0246 84.2927 26.5483 83.941 26.9192C83.5893 27.2683 83.0947 27.4429 82.4572 27.4429C81.7978 27.4429 81.2922 27.2683 80.9405 26.9192C80.5888 26.5483 80.413 26.0246 80.413 25.3482V5.90741C80.413 5.23101 80.5888 4.71826 80.9405 4.36916C81.2922 4.02005 81.7978 3.8455 82.4572 3.8455C83.1167 3.8455 83.6222 4.02005 83.9739 4.36916C84.3476 4.71826 84.5345 5.23101 84.5345 5.90741V14.4169H84.1388C84.4905 13.3477 85.1719 12.4859 86.1831 11.8313C87.1942 11.1767 88.3702 10.8494 89.711 10.8494C91.1398 10.8494 92.3818 11.1876 93.4369 11.864C94.492 12.5404 95.3162 13.5005 95.9097 14.7441C96.5032 15.966 96.8 17.4388 96.8 19.1625C96.8 20.8644 96.5032 22.3481 95.9097 23.6136C95.3162 24.8573 94.481 25.8174 93.4039 26.4937C92.3488 27.1701 91.1178 27.5083 89.711 27.5083ZM88.557 24.3991C89.3703 24.3991 90.0847 24.2027 90.7002 23.81C91.3157 23.4172 91.7883 22.839 92.118 22.0754C92.4697 21.2899 92.6455 20.3189 92.6455 19.1625C92.6455 17.417 92.2719 16.1188 91.5245 15.2678C90.7771 14.395 89.788 13.9587 88.557 13.9587C87.7437 13.9587 87.0293 14.155 86.4139 14.5478C85.7984 14.9187 85.3148 15.4969 84.9631 16.2824C84.6334 17.0461 84.4685 18.0061 84.4685 19.1625C84.4685 20.8862 84.8422 22.1954 85.5896 23.09C86.3369 23.9627 87.3261 24.3991 88.557 24.3991Z"/>
<path d="M0.871819 15.0713C0.438401 12.2763 1.99882 9.57249 4.67567 8.48014L22.7975 1.08511C26.6678 -0.301624 30.5712 3.11013 29.7277 6.95347L27.1689 16.0601L24.6101 25.1667C23.6263 28.7365 19.6783 30.6968 16.0905 29.3899C13.9799 28.6211 12.3558 26.5247 11.9428 24.6781L11.7349 23.9312C11.4206 22.802 11.2719 21.6378 11.2931 20.4726L13.1696 18.3957L16.5478 17.4806C17.1299 17.3229 17.6874 17.0926 18.2064 16.7954L19.3055 16.1661C19.8969 15.8274 20.3554 15.3103 20.6116 14.6929C21.6759 12.1286 18.9377 9.58343 16.3298 10.7129L16.2293 10.7564C15.4718 11.0845 14.8792 11.6853 14.5761 12.4325L13.9571 13.9583C13.7283 14.5223 13.5749 15.1129 13.5004 15.716L13.1696 18.3957L11.2931 20.4726L10.1242 20.5735C9.63014 20.6162 9.13264 20.618 8.63715 20.5789L6.80382 20.4343C3.7874 20.1964 1.32075 17.9663 0.871819 15.0713Z"/>
</mask>
<path d="M12.0566 17.3901L10.1801 19.467L12.4061 21.4783L14.2826 19.4013L12.0566 17.3901ZM45.7202 26.4937L44.0522 28.9873L44.0645 28.9955L44.0769 29.0037L45.7202 26.4937ZM43.7089 23.7773L40.9663 22.5615L40.5225 23.5628L40.8281 24.6144L43.7089 23.7773ZM44.0716 22.959H47.0716L41.329 21.7433L44.0716 22.959ZM43.5441 26.9192L45.6575 29.0484L45.6898 29.0164L45.7211 28.9834L43.5441 26.9192ZM40.5436 26.9192L38.3666 28.9834L38.3979 29.0164L38.4302 29.0484L40.5436 26.9192ZM40.5436 4.36916L42.6571 6.49832L42.6571 6.49831L40.5436 4.36916ZM43.577 4.36916L41.4636 6.49831L41.4958 6.53032L41.529 6.56134L43.577 4.36916ZM44.1376 14.4169V17.4169H47.1376V14.4169H44.1376ZM43.7419 14.4169L40.8921 13.4794L39.5969 17.4169H43.7419V14.4169ZM53.0399 11.864L54.659 9.33844L54.659 9.33844L53.0399 11.864ZM55.5128 14.7441L52.8053 16.0362L52.8098 16.0455L52.8143 16.0549L55.5128 14.7441ZM55.5128 23.6136L58.2204 24.9057L58.2247 24.8966L58.229 24.8874L55.5128 23.6136ZM53.007 26.4937L51.4115 23.9532L51.3997 23.9606L51.3879 23.9682L53.007 26.4937ZM50.3033 23.81L48.6895 21.281L48.6895 21.281L50.3033 23.81ZM51.7211 22.0754L48.983 20.8494L48.9748 20.8678L48.9668 20.8862L51.7211 22.0754ZM51.1276 15.2678L48.8489 17.2191L48.8611 17.2334L48.8735 17.2475L51.1276 15.2678ZM46.017 14.5478L47.5655 17.1172L47.5984 17.0974L47.6307 17.0768L46.017 14.5478ZM44.5662 16.2824L41.8281 15.0564L41.8199 15.0748L41.8119 15.0932L44.5662 16.2824ZM45.1927 23.09L42.8904 25.0134L42.9021 25.0274L42.914 25.0412L45.1927 23.09ZM58.8301 24.5628L56.3487 26.2487L56.3714 26.2822L56.395 26.315L58.8301 24.5628ZM58.1707 19.228L55.3267 18.273L55.3167 18.3028L55.3074 18.3328L58.1707 19.228ZM59.0939 17.4279L56.678 15.6493L56.6717 15.6579L56.6655 15.6664L59.0939 17.4279ZM60.5776 15.8569L62.5071 18.1541L62.5147 18.1477L60.5776 15.8569ZM62.5889 14.4496L64.1016 17.0403L64.1016 17.0403L62.5889 14.4496ZM63.7099 13.795L66.2004 15.4677L62.1972 11.2043L63.7099 13.795ZM63.1164 14.6787L61.003 16.8078L63.5813 19.3672L65.6069 16.3513L63.1164 14.6787ZM61.0062 11.9622L58.3001 13.2572L58.3199 13.2985L58.3409 13.3392L61.0062 11.9622ZM61.1711 6.39834L58.64 4.78788L58.64 4.78788L61.1711 6.39834ZM63.4132 4.46735L64.6976 7.17849L64.6976 7.17849L63.4132 4.46735ZM71.0956 5.15465L69.1284 7.4196L69.1419 7.43132L69.1555 7.44287L71.0956 5.15465ZM72.1837 11.1767L69.4423 9.95829L69.4423 9.95829L72.1837 11.1767ZM70.601 13.3041L68.5551 11.11L68.5551 11.11L70.601 13.3041ZM67.6995 15.3005L64.7012 15.1999L64.5256 20.4305L69.1279 17.9387L67.6995 15.3005ZM67.7325 14.3187L69.9116 12.2568L64.9752 7.0397L64.7342 14.218L67.7325 14.3187ZM73.3377 20.2426V23.2426H80.3064L75.5168 18.1807L73.3377 20.2426ZM72.4475 20.2426L69.8697 18.708L67.1702 23.2426H72.4475V20.2426ZM73.2058 18.6716L76.0032 19.7555L76.01 19.738L76.0165 19.7203L73.2058 18.6716ZM73.7664 16.8061L70.8629 16.0512L70.854 16.0853L70.846 16.1196L73.7664 16.8061ZM74.162 14.7114L71.2002 14.234L71.1911 14.2907L71.1841 14.3478L74.162 14.7114ZM74.7225 13.5005L76.7492 15.7124L76.7934 15.6719L76.836 15.6296L74.7225 13.5005ZM77.2284 13.5659L74.9685 15.539L75.0024 15.5778L75.0375 15.6154L77.2284 13.5659ZM77.5581 14.9078L74.5767 14.5741L74.5752 14.5881L77.5581 14.9078ZM76.9976 17.8534L74.1095 17.0414L74.103 17.0647L74.0968 17.088L76.9976 17.8534ZM76.0744 20.4389L78.7834 21.7277L78.7902 21.7135L78.7969 21.6991L76.0744 20.4389ZM74.8214 22.6318L71.823 22.7292L72.1213 31.9103L77.2994 24.3228L74.8214 22.6318ZM74.7885 21.6172L76.913 19.4991L71.543 14.1126L71.79 21.7146L74.7885 21.6172ZM77.9208 24.7591L75.7962 26.8772L75.8018 26.8827L75.8073 26.8883L77.9208 24.7591ZM78.0527 27.0501L79.9967 29.335L80.0029 29.3297L80.0091 29.3244L78.0527 27.0501ZM75.5798 27.181L73.966 29.71L74.0318 29.752L74.0997 29.7905L75.5798 27.181ZM74.5577 26.3301L72.3945 28.4087L72.419 28.4343L72.4442 28.4593L74.5577 26.3301ZM72.5134 24.2027V21.2027H65.47L70.3502 26.2814L72.5134 24.2027ZM73.4696 24.2027L75.6521 26.2611L80.4227 21.2027H73.4696V24.2027ZM70.0405 26.6247L68.817 23.8855L68.8084 23.8894L68.7998 23.8933L70.0405 26.6247ZM68.9524 23.6791L70.257 26.3806L70.2716 26.3735L70.2862 26.3663L68.9524 23.6791ZM71.2275 21.8463L74.2142 22.1284L75.1152 12.5892L68.935 19.9112L71.2275 21.8463ZM71.1286 22.8936L68.9799 24.9871L73.5055 29.6321L74.1153 23.1757L71.1286 22.8936ZM64.3364 15.9224L64.6214 12.936L56.4812 12.159L62.1877 18.0159L64.3364 15.9224ZM66.0509 16.086L67.5597 18.679L75.6246 13.9862L66.336 13.0996L66.0509 16.086ZM65.0948 16.6424L63.5859 14.0494L63.5821 14.0517L65.0948 16.6424ZM63.2813 17.9516L65.2858 20.1836L65.3144 20.1579L65.3422 20.1316L63.2813 17.9516ZM62.2592 19.3262L59.5112 18.1225L59.498 18.1526L59.4855 18.183L62.2592 19.3262ZM63.0505 23.3845L64.9418 21.0558L64.9418 21.0558L63.0505 23.3845ZM64.8969 7.3802L66.9068 9.60744L66.9338 9.583L66.9603 9.5579L64.8969 7.3802ZM64.3694 10.3585L61.5427 11.3636L61.5526 11.3912L61.563 11.4187L64.3694 10.3585ZM65.0618 11.5367L62.6682 13.3453L62.6907 13.375L62.7138 13.4041L65.0618 11.5367ZM66.4136 13.075L66.2015 16.0675L73.8268 16.6081L68.6045 11.0255L66.4136 13.075ZM65.4904 13.0095L64.0103 10.4001L55.3723 15.2997L65.2782 16.002L65.4904 13.0095ZM67.6666 11.6022L65.8598 9.20726L65.8362 9.22509L65.8129 9.24337L67.6666 11.6022ZM68.8535 10.3585L71.445 11.87L71.445 11.87L68.8535 10.3585ZM68.5568 7.28201L66.5581 9.51926L66.5581 9.51926L68.5568 7.28201ZM86.1171 26.4937L84.4491 28.9873L84.4614 28.9955L84.4739 29.0037L86.1171 26.4937ZM84.1058 23.7773L81.3632 22.5615L80.9194 23.5628L81.225 24.6144L84.1058 23.7773ZM84.4685 22.959H87.4685L81.7259 21.7433L84.4685 22.959ZM83.941 26.9192L86.0544 29.0484L86.0867 29.0164L86.118 28.9834L83.941 26.9192ZM80.9405 26.9192L78.7636 28.9834L78.7948 29.0164L78.8271 29.0484L80.9405 26.9192ZM80.9405 4.36916L83.054 6.49832L83.054 6.49831L80.9405 4.36916ZM83.9739 4.36916L81.8605 6.49831L81.8927 6.53032L81.9259 6.56134L83.9739 4.36916ZM84.5345 14.4169V17.4169H87.5345V14.4169H84.5345ZM84.1388 14.4169L81.289 13.4794L79.9938 17.4169H84.1388V14.4169ZM93.4369 11.864L95.0559 9.33844L95.0559 9.33844L93.4369 11.864ZM95.9097 14.7441L93.2022 16.0362L93.2067 16.0455L93.2112 16.0549L95.9097 14.7441ZM95.9097 23.6136L98.6173 24.9057L98.6216 24.8966L98.6259 24.8874L95.9097 23.6136ZM93.4039 26.4937L91.8084 23.9532L91.7966 23.9606L91.7848 23.9682L93.4039 26.4937ZM90.7002 23.81L89.0864 21.281L89.0864 21.281L90.7002 23.81ZM92.118 22.0754L89.3799 20.8494L89.3717 20.8678L89.3637 20.8862L92.118 22.0754ZM91.5245 15.2678L89.2458 17.2191L89.258 17.2334L89.2704 17.2475L91.5245 15.2678ZM86.4139 14.5478L87.9624 17.1172L87.9953 17.0974L88.0276 17.0768L86.4139 14.5478ZM84.9631 16.2824L82.225 15.0564L82.2168 15.0748L82.2088 15.0932L84.9631 16.2824ZM85.5896 23.09L83.2873 25.0134L83.299 25.0274L83.3109 25.0412L85.5896 23.09ZM22.7975 1.08511L21.7856 -1.73908L21.7243 -1.71712L21.664 -1.69252L22.7975 1.08511ZM29.7277 6.95347L32.6158 7.76498L32.6393 7.68141L32.6579 7.59662L29.7277 6.95347ZM11.2931 20.4726L14.2926 20.5272L14.3531 17.1974L11.0351 17.4838L11.2931 20.4726ZM13.1696 18.3957L10.1922 18.0282L9.64524 22.4586L13.954 21.2914L13.1696 18.3957ZM18.2064 16.7954L19.6971 19.3988L19.6971 19.3988L18.2064 16.7954ZM16.5478 17.4806L15.7633 14.5849L15.7633 14.5849L16.5478 17.4806ZM20.6116 14.6929L23.3825 15.843L23.3825 15.843L20.6116 14.6929ZM19.3055 16.1661L17.8147 13.5627L17.8147 13.5627L19.3055 16.1661ZM16.3298 10.7129L17.522 13.4658L17.522 13.4658L16.3298 10.7129ZM16.2293 10.7564L15.037 8.00354L15.037 8.00355L16.2293 10.7564ZM14.5761 12.4325L11.7961 11.3048L11.7961 11.3048L14.5761 12.4325ZM16.0905 29.3899L17.1173 26.5711L16.0905 29.3899ZM11.9428 24.6781L14.8705 24.0234L14.8536 23.948L14.8329 23.8737L11.9428 24.6781ZM13.9571 13.9583L16.737 15.0861L16.737 15.0861L13.9571 13.9583ZM13.5004 15.716L10.523 15.3484L10.523 15.3484L13.5004 15.716ZM24.6101 25.1667L21.722 24.3552L21.7199 24.3624L21.7179 24.3697L24.6101 25.1667ZM0.871819 15.0713L-2.09275 15.531L-2.09275 15.531L0.871819 15.0713ZM6.80382 20.4343L6.56794 23.425L6.56795 23.425L6.80382 20.4343ZM10.1242 20.5735L9.86629 17.5846L9.86629 17.5846L10.1242 20.5735ZM8.63715 20.5789L8.87303 17.5882L8.87303 17.5882L8.63715 20.5789ZM4.67567 8.48014L3.5422 5.70251L3.5422 5.70251L4.67567 8.48014ZM11.7349 23.9312L8.84476 24.7356L8.84476 24.7356L11.7349 23.9312ZM27.1689 16.0601L30.0571 16.8716L30.0571 16.8716L27.1689 16.0601ZM49.3141 24.5083C48.4722 24.5083 47.8581 24.3077 47.3635 23.9838L44.0769 29.0037C45.6485 30.0326 47.4304 30.5083 49.3141 30.5083V24.5083ZM47.3882 24.0002C46.9446 23.7035 46.7163 23.3756 46.5898 22.9401L40.8281 24.6144C41.361 26.4481 42.4735 27.9312 44.0522 28.9873L47.3882 24.0002ZM46.4516 24.993L46.8142 24.1748L41.329 21.7433L40.9663 22.5615L46.4516 24.993ZM41.0716 22.959V25.3482H47.0716V22.959H41.0716ZM41.0716 25.3482C41.0716 25.4319 41.0602 25.3994 41.0958 25.2933C41.1355 25.1752 41.2189 25.0114 41.3671 24.8551L45.7211 28.9834C46.7539 27.8941 47.0716 26.5376 47.0716 25.3482H41.0716ZM41.4306 24.7901C41.5883 24.6335 41.7643 24.5347 41.9109 24.483C42.045 24.4357 42.1098 24.4429 42.0603 24.4429V30.4429C43.2527 30.4429 44.5955 30.1025 45.6575 29.0484L41.4306 24.7901ZM42.0603 24.4429C41.9892 24.4429 42.0399 24.4328 42.1657 24.4762C42.3049 24.5243 42.4879 24.6221 42.6571 24.7901L38.4302 29.0484C39.5104 30.1206 40.8795 30.4429 42.0603 30.4429V24.4429ZM42.7206 24.8551C42.8688 25.0114 42.9522 25.1752 42.9919 25.2933C43.0275 25.3994 43.0161 25.4319 43.0161 25.3482H37.0161C37.0161 26.5376 37.3338 27.8941 38.3666 28.9834L42.7206 24.8551ZM43.0161 25.3482V5.90741H37.0161V25.3482H43.0161ZM43.0161 5.90741C43.0161 5.82173 43.0281 5.86532 42.9857 5.98878C42.9384 6.12664 42.8381 6.31868 42.6571 6.49832L38.4302 2.24C37.3291 3.33297 37.0161 4.73075 37.0161 5.90741H43.0161ZM42.6571 6.49831C42.4879 6.6663 42.3049 6.76409 42.1657 6.81215C42.0399 6.85558 41.9892 6.8455 42.0603 6.8455V0.845499C40.8795 0.845499 39.5103 1.1678 38.4302 2.24L42.6571 6.49831ZM42.0603 6.8455C42.1315 6.8455 42.0808 6.85558 41.955 6.81215C41.8158 6.76408 41.6328 6.6663 41.4636 6.49831L45.6905 2.24C44.6103 1.1678 43.2412 0.845499 42.0603 0.845499V6.8455ZM41.529 6.56134C41.3479 6.3921 41.2358 6.19933 41.1787 6.04266C41.1274 5.90171 41.1376 5.8388 41.1376 5.90741H47.1376C47.1376 4.68081 46.7846 3.26025 45.625 2.17698L41.529 6.56134ZM41.1376 5.90741V14.4169H47.1376V5.90741H41.1376ZM44.1376 11.4169H43.7419V17.4169H44.1376V11.4169ZM46.5917 15.3543C46.7137 14.9833 46.937 14.66 47.4164 14.3497L44.1559 9.31294C42.613 10.3117 41.4735 11.7121 40.8921 13.4794L46.5917 15.3543ZM47.4164 14.3497C47.888 14.0444 48.484 13.8494 49.3141 13.8494V7.84944C47.4625 7.84944 45.7065 8.30908 44.1559 9.31294L47.4164 14.3497ZM49.3141 13.8494C50.2515 13.8494 50.914 14.0647 51.4209 14.3896L54.659 9.33844C53.0557 8.31057 51.2344 7.84944 49.3141 7.84944V13.8494ZM51.4209 14.3896C51.9591 14.7347 52.4278 15.2451 52.8053 16.0362L58.2204 13.4521C57.4109 11.7558 56.231 10.3462 54.659 9.33844L51.4209 14.3896ZM52.8143 16.0549C53.1634 16.7736 53.4031 17.7744 53.4031 19.1625H59.4031C59.4031 17.1032 59.0492 15.1584 58.2113 13.4334L52.8143 16.0549ZM53.4031 19.1625C53.4031 20.5181 53.1671 21.5501 52.7967 22.3398L58.229 24.8874C59.0456 23.1462 59.4031 21.2107 59.4031 19.1625H53.4031ZM52.8053 22.3216C52.4354 23.0967 51.9669 23.6044 51.4115 23.9532L54.6024 29.0343C56.2012 28.0303 57.4033 26.6179 58.2204 24.9057L52.8053 22.3216ZM51.3879 23.9682C50.8736 24.2979 50.2195 24.5083 49.3141 24.5083V30.5083C51.2224 30.5083 53.0301 30.0424 54.6261 29.0193L51.3879 23.9682ZM48.1601 27.3991C49.4779 27.3991 50.7658 27.0736 51.9171 26.339L48.6895 21.281C48.6098 21.3319 48.4689 21.3991 48.1601 21.3991V27.3991ZM51.9171 26.339C53.1062 25.5802 53.9421 24.4996 54.4753 23.2645L48.9668 20.8862C48.8406 21.1785 48.7313 21.2543 48.6895 21.281L51.9171 26.339ZM54.4591 23.3013C55.032 22.0219 55.2486 20.604 55.2486 19.1625H49.2486C49.2486 20.0339 49.1135 20.5579 48.983 20.8494L54.4591 23.3013ZM55.2486 19.1625C55.2486 17.0667 54.8115 14.9161 53.3817 13.2881L48.8735 17.2475C48.9384 17.3214 49.2486 17.7673 49.2486 19.1625H55.2486ZM53.4063 13.3165C52.0444 11.7261 50.1964 10.9587 48.1601 10.9587V16.9587C48.5857 16.9587 48.7161 17.064 48.8489 17.2191L53.4063 13.3165ZM48.1601 10.9587C46.8423 10.9587 45.5545 11.2841 44.4032 12.0188L47.6307 17.0768C47.7104 17.0259 47.8513 16.9587 48.1601 16.9587V10.9587ZM44.4684 11.9783C43.2321 12.7234 42.3795 13.8249 41.8281 15.0564L47.3043 17.5084C47.383 17.3326 47.4521 17.2342 47.4939 17.1843C47.5328 17.1378 47.5564 17.1227 47.5655 17.1172L44.4684 11.9783ZM41.8119 15.0932C41.27 16.3485 41.0716 17.7461 41.0716 19.1625H47.0716C47.0716 18.2661 47.203 17.7436 47.3204 17.4716L41.8119 15.0932ZM41.0716 19.1625C41.0716 21.2633 41.52 23.373 42.8904 25.0134L47.4949 21.1666C47.3706 21.0178 47.0716 20.5092 47.0716 19.1625H41.0716ZM42.914 25.0412C44.2759 26.6317 46.1238 27.3991 48.1601 27.3991V21.3991C47.7345 21.3991 47.6042 21.2938 47.4714 21.1387L42.914 25.0412ZM65.9191 24.5083C64.5809 24.5083 63.5758 24.2952 62.8251 23.97L60.4403 29.4757C62.1075 30.1978 63.96 30.5083 65.9191 30.5083V24.5083ZM62.8251 23.97C62.0291 23.6252 61.5588 23.2185 61.2652 22.8105L56.395 26.315C57.4203 27.7398 58.8184 28.7732 60.4403 29.4757L62.8251 23.97ZM61.3115 22.8768C61.0445 22.4837 60.8739 21.9929 60.8739 21.2899H54.8739C54.8739 23.0743 55.3408 24.7653 56.3487 26.2487L61.3115 22.8768ZM60.8739 21.2899C60.8739 20.816 60.9368 20.434 61.034 20.1232L55.3074 18.3328C55.0089 19.2875 54.8739 20.2801 54.8739 21.2899H60.8739ZM61.0146 20.183C61.14 19.8095 61.3096 19.4826 61.5223 19.1894L56.6655 15.6664C56.0868 16.4642 55.641 17.3373 55.3267 18.273L61.0146 20.183ZM61.5098 19.2065C61.7783 18.8418 62.1069 18.4902 62.5071 18.1541L58.6482 13.5597C57.9053 14.1837 57.2447 14.8795 56.678 15.6493L61.5098 19.2065ZM62.5147 18.1477C62.9617 17.7697 63.4875 17.3989 64.1016 17.0403L61.0762 11.8589C60.1956 12.3731 59.3805 12.9404 58.6406 13.5661L62.5147 18.1477ZM64.1016 17.0403L65.2226 16.3857L62.1972 11.2043L61.0762 11.8589L64.1016 17.0403ZM61.2195 12.1224L60.626 13.0061L65.6069 16.3513L66.2004 15.4677L61.2195 12.1224ZM65.2299 12.5495C64.399 11.7248 63.921 11.068 63.6716 10.5852L58.3409 13.3392C58.9707 14.5583 59.8995 15.7126 61.003 16.8078L65.2299 12.5495ZM63.7124 10.6673C63.4771 10.1757 63.3798 9.72176 63.3798 9.27846H57.3798C57.3798 10.668 57.7001 12.0032 58.3001 13.2572L63.7124 10.6673ZM63.3798 9.27846C63.3798 8.69305 63.514 8.30461 63.7022 8.00879L58.64 4.78788C57.7731 6.15032 57.3798 7.68196 57.3798 9.27846H63.3798ZM63.7022 8.0088C63.8993 7.69897 64.1942 7.41699 64.6976 7.17849L62.1288 1.7562C60.6979 2.43411 59.498 3.43945 58.64 4.78788L63.7022 8.0088ZM64.6976 7.17849C65.1874 6.94646 65.8641 6.78004 66.8093 6.78004V0.780043C65.1606 0.780043 63.5734 1.07182 62.1288 1.7562L64.6976 7.17849ZM66.8093 6.78004C68.1033 6.78004 68.7617 7.10111 69.1284 7.4196L73.0628 2.88969C71.3193 1.37537 69.1202 0.780043 66.8093 0.780043V6.78004ZM69.1555 7.44287C69.4528 7.6949 69.6783 8.0338 69.6783 8.82026H75.6783C75.6783 6.5084 74.8487 4.40356 73.0357 2.86642L69.1555 7.44287ZM69.6783 8.82026C69.6783 9.23881 69.5978 9.60833 69.4423 9.95829L74.9251 12.3952C75.429 11.2614 75.6783 10.06 75.6783 8.82026H69.6783ZM69.4423 9.95829C69.3084 10.2594 69.0491 10.6493 68.5551 11.11L72.647 15.4982C73.6037 14.6061 74.3995 13.5778 74.9251 12.3952L69.4423 9.95829ZM68.5551 11.11C68.0719 11.5605 67.3355 12.0861 66.2712 12.6624L69.1279 17.9387C70.4815 17.2058 71.6794 16.4005 72.647 15.4982L68.5551 11.11ZM70.6978 15.4012L70.7308 14.4193L64.7342 14.218L64.7012 15.1999L70.6978 15.4012ZM65.5534 16.3806L71.1586 22.3045L75.5168 18.1807L69.9116 12.2568L65.5534 16.3806ZM73.3377 17.2426H72.4475V23.2426H73.3377V17.2426ZM75.0253 21.7771C75.4038 21.1412 75.7282 20.4652 76.0032 19.7555L70.4085 17.5877C70.2438 18.0126 70.0626 18.3839 69.8697 18.708L75.0253 21.7771ZM76.0165 19.7203C76.2834 19.0051 76.506 18.2617 76.6867 17.4925L70.846 16.1196C70.719 16.6596 70.5679 17.1599 70.3951 17.6229L76.0165 19.7203ZM76.6698 17.5609C76.8804 16.7511 77.0365 15.922 77.1399 15.0751L71.1841 14.3478C71.1117 14.9409 71.004 15.5082 70.8629 16.0512L76.6698 17.5609ZM77.1238 15.1888C77.1488 15.0334 77.135 15.3588 76.7492 15.7124L72.6958 11.2886C71.7385 12.1657 71.351 13.2985 71.2002 14.234L77.1238 15.1888ZM76.836 15.6296C76.6391 15.8251 76.4194 15.9479 76.2297 16.014C76.1408 16.045 76.0685 16.0602 76.0198 16.0676C75.9715 16.0749 75.9442 16.075 75.9425 16.075V10.075C74.8782 10.075 73.615 10.3727 72.6091 11.3713L76.836 15.6296ZM75.9425 16.075C75.9425 16.075 75.9353 16.075 75.9217 16.074C75.908 16.0729 75.8872 16.0708 75.8599 16.0663C75.8054 16.0574 75.7232 16.0388 75.6226 16.0004C75.4049 15.9173 75.1666 15.7658 74.9685 15.539L79.4882 11.5928C78.4664 10.4225 77.0903 10.075 75.9425 10.075V16.075ZM75.0375 15.6154C74.7947 15.3557 74.6668 15.0701 74.6118 14.8463C74.5621 14.6443 74.5811 14.5348 74.5767 14.5741L80.5395 15.2415C80.6608 14.1575 80.5222 12.6955 79.4192 11.5165L75.0375 15.6154ZM74.5752 14.5881C74.4821 15.4568 74.3255 16.2734 74.1095 17.0414L79.8856 18.6653C80.1972 17.5569 80.4143 16.4098 80.541 15.2275L74.5752 14.5881ZM74.0968 17.088C73.897 17.8456 73.6471 18.5409 73.3519 19.1788L78.7969 21.6991C79.2489 20.7224 79.6146 19.694 79.8983 18.6187L74.0968 17.088ZM73.3653 19.1502C73.0541 19.8044 72.7126 20.3998 72.3435 20.9407L77.2994 24.3228C77.8535 23.5109 78.3473 22.6445 78.7834 21.7277L73.3653 19.1502ZM77.8199 22.5343L77.7869 21.5197L71.79 21.7146L71.823 22.7292L77.8199 22.5343ZM72.6639 23.7352L75.7962 26.8772L80.0454 22.6411L76.913 19.4991L72.6639 23.7352ZM75.8073 26.8883C75.8981 26.9784 75.5472 26.6727 75.5472 26.0028H81.5472C81.5472 24.5038 80.7787 23.369 80.0342 22.63L75.8073 26.8883ZM75.5472 26.0028C75.5472 25.8004 75.5904 25.5496 75.7109 25.2945C75.8295 25.0432 75.9825 24.8737 76.0962 24.7759L80.0091 29.3244C80.9642 28.5028 81.5472 27.3391 81.5472 26.0028H75.5472ZM76.1086 24.7652C76.5115 24.4225 76.861 24.4429 76.7668 24.4429V30.4429C77.7716 30.4429 78.9784 30.2014 79.9967 29.335L76.1086 24.7652ZM76.7668 24.4429C76.7019 24.4429 76.703 24.4367 76.7536 24.4478C76.8065 24.4595 76.9187 24.4915 77.0599 24.5716L74.0997 29.7905C74.9944 30.298 75.9465 30.4429 76.7668 30.4429V24.4429ZM77.1936 24.6521C77.1261 24.609 76.9534 24.4812 76.6711 24.2009L72.4442 28.4593C72.9093 28.9209 73.4181 29.3604 73.966 29.71L77.1936 24.6521ZM76.7208 24.2515L74.6766 22.1241L70.3502 26.2814L72.3945 28.4087L76.7208 24.2515ZM72.5134 27.2027H73.4696V21.2027H72.5134V27.2027ZM71.2871 22.1444C70.5983 22.8747 69.7836 23.4537 68.817 23.8855L71.2641 29.3638C72.9352 28.6173 74.4065 27.5818 75.6521 26.2611L71.2871 22.1444ZM68.7998 23.8933C67.8999 24.302 66.95 24.5083 65.9191 24.5083V30.5083C67.7897 30.5083 69.5873 30.1255 71.2813 29.3561L68.7998 23.8933ZM66.1499 27.2682C67.5811 27.2682 68.9738 27.0002 70.257 26.3806L67.6479 20.9776C67.3045 21.1434 66.8288 21.2682 66.1499 21.2682V27.2682ZM70.2862 26.3663C71.535 25.7465 72.6089 24.8607 73.52 23.7813L68.935 19.9112C68.4832 20.4465 68.0405 20.7825 67.6187 20.9918L70.2862 26.3663ZM68.2408 21.5642L68.1419 22.6115L74.1153 23.1757L74.2142 22.1284L68.2408 21.5642ZM73.2773 20.8L66.4851 13.8288L62.1877 18.0159L68.9799 24.9871L73.2773 20.8ZM64.0514 18.9088L65.7659 19.0725L66.336 13.0996L64.6214 12.936L64.0514 18.9088ZM64.5421 13.4931L63.5859 14.0494L66.6036 19.2354L67.5597 18.679L64.5421 13.4931ZM63.5821 14.0517C62.7029 14.5651 61.8961 15.1327 61.2204 15.7715L65.3422 20.1316C65.5897 19.8976 65.9919 19.5925 66.6075 19.2331L63.5821 14.0517ZM61.2768 15.7196C60.539 16.3821 59.9241 17.18 59.5112 18.1225L65.0071 20.5298C65.0339 20.4686 65.1004 20.3501 65.2858 20.1836L61.2768 15.7196ZM59.4855 18.183C59.1143 19.0838 58.9624 20.0277 58.9624 20.9626H64.9624C64.9624 20.6757 65.0084 20.5286 65.0329 20.4693L59.4855 18.183ZM58.9624 20.9626C58.9624 22.7915 59.6582 24.4942 61.1592 25.7133L64.9418 21.0558C64.9269 21.0437 64.9299 21.0437 64.9409 21.0579C64.9524 21.0726 64.9633 21.0907 64.971 21.1078C64.9784 21.1243 64.9771 21.1271 64.9734 21.1084C64.9695 21.0887 64.9624 21.0422 64.9624 20.9626H58.9624ZM61.1592 25.7133C62.6091 26.8908 64.4127 27.2682 66.1499 27.2682V21.2682C65.2053 21.2682 64.9426 21.0565 64.9418 21.0558L61.1592 25.7133ZM66.8093 3.69289C65.4038 3.69289 63.9767 4.11937 62.8335 5.20249L66.9603 9.5579C66.9318 9.58495 66.8966 9.6125 66.8565 9.63708C66.8165 9.66159 66.7802 9.67791 66.7524 9.68792C66.6959 9.7082 66.7025 9.69289 66.8093 9.69289V3.69289ZM62.8871 5.15296C61.6631 6.25747 61.1715 7.72798 61.1715 9.18027H67.1715C67.1715 9.11459 67.1816 9.16429 67.1355 9.27881C67.0849 9.40434 67.0007 9.52262 66.9068 9.60744L62.8871 5.15296ZM61.1715 9.18027C61.1715 9.91894 61.2901 10.6531 61.5427 11.3636L67.196 9.35346C67.1848 9.32205 67.1715 9.27073 67.1715 9.18027H61.1715ZM61.563 11.4187C61.8312 12.1287 62.2383 12.7763 62.6682 13.3453L67.4554 9.72822C67.347 9.58475 67.2743 9.47405 67.2278 9.39492C67.1806 9.3145 67.1702 9.28339 67.1758 9.29828L61.563 11.4187ZM62.7138 13.4041C63.1134 13.9065 63.6239 14.4843 64.2228 15.1244L68.6045 11.0255C68.0603 10.4438 67.6696 9.99607 67.4097 9.66933L62.7138 13.4041ZM66.6258 10.0825L65.7026 10.017L65.2782 16.002L66.2015 16.0675L66.6258 10.0825ZM66.9705 15.619C67.9586 15.0585 68.8272 14.5056 69.5202 13.961L65.8129 9.24337C65.4508 9.52791 64.8687 9.91319 64.0103 10.4001L66.9705 15.619ZM69.4733 13.9971C70.2133 13.4389 70.9357 12.7431 71.445 11.87L66.2621 8.84706C66.2794 8.81733 66.2715 8.83966 66.2052 8.90907C66.1393 8.97819 66.0298 9.07904 65.8598 9.20726L69.4733 13.9971ZM71.445 11.87C71.9668 10.9753 72.2162 9.99155 72.2162 8.9839H66.2162C66.2162 8.9917 66.2156 8.97355 66.2248 8.93858C66.2343 8.90283 66.2485 8.87039 66.2621 8.84706L71.445 11.87ZM72.2162 8.9839C72.2162 7.62468 71.7898 6.14744 70.5555 5.04476L66.5581 9.51926C66.4128 9.3894 66.3098 9.22981 66.254 9.08595C66.2042 8.95729 66.2162 8.9048 66.2162 8.9839H72.2162ZM70.5555 5.04476C69.4467 4.0542 68.0946 3.69289 66.8093 3.69289V9.69289C66.9033 9.69289 66.8993 9.70571 66.8318 9.68298C66.7557 9.65732 66.6535 9.60449 66.5581 9.51926L70.5555 5.04476ZM89.711 24.5083C88.8691 24.5083 88.2551 24.3077 87.7604 23.9838L84.4739 29.0037C86.0454 30.0326 87.8273 30.5083 89.711 30.5083V24.5083ZM87.7852 24.0002C87.3416 23.7035 87.1132 23.3756 86.9867 22.9401L81.225 24.6144C81.7579 26.4482 82.8704 27.9312 84.4491 28.9873L87.7852 24.0002ZM86.8485 24.993L87.2112 24.1748L81.7259 21.7433L81.3632 22.5615L86.8485 24.993ZM81.4685 22.959V25.3482H87.4685V22.959H81.4685ZM81.4685 25.3482C81.4685 25.4319 81.4571 25.3994 81.4927 25.2932C81.5324 25.1752 81.6158 25.0113 81.764 24.8551L86.118 28.9834C87.1508 27.8941 87.4685 26.5376 87.4685 25.3482H81.4685ZM81.8275 24.7901C81.9852 24.6335 82.1612 24.5347 82.3078 24.483C82.4419 24.4357 82.5067 24.4429 82.4572 24.4429V30.4429C83.6496 30.4429 84.9924 30.1025 86.0544 29.0484L81.8275 24.7901ZM82.4572 24.4429C82.3861 24.4429 82.4368 24.4328 82.5626 24.4762C82.7018 24.5243 82.8848 24.6221 83.054 24.7901L78.8271 29.0484C79.9073 30.1206 81.2764 30.4429 82.4572 30.4429V24.4429ZM83.1175 24.8551C83.2657 25.0114 83.3492 25.1752 83.3888 25.2933C83.4244 25.3994 83.413 25.432 83.413 25.3482H77.413C77.413 26.5376 77.7307 27.894 78.7636 28.9834L83.1175 24.8551ZM83.413 25.3482V5.90741H77.413V25.3482H83.413ZM83.413 5.90741C83.413 5.82172 83.425 5.86531 83.3826 5.98877C83.3353 6.12664 83.235 6.31868 83.054 6.49832L78.8271 2.24C77.726 3.33298 77.413 4.73076 77.413 5.90741H83.413ZM83.054 6.49831C82.8848 6.6663 82.7018 6.76409 82.5626 6.81215C82.4368 6.85558 82.3861 6.8455 82.4572 6.8455V0.845499C81.2764 0.845499 79.9073 1.1678 78.8271 2.24L83.054 6.49831ZM82.4572 6.8455C82.5284 6.8455 82.4777 6.85558 82.3519 6.81215C82.2127 6.76408 82.0297 6.6663 81.8605 6.49831L86.0874 2.24C85.0072 1.1678 83.6381 0.845499 82.4572 0.845499V6.8455ZM81.9259 6.56134C81.7448 6.3921 81.6327 6.19933 81.5756 6.04266C81.5243 5.90171 81.5345 5.8388 81.5345 5.90741H87.5345C87.5345 4.68081 87.1815 3.26025 86.022 2.17698L81.9259 6.56134ZM81.5345 5.90741V14.4169H87.5345V5.90741H81.5345ZM84.5345 11.4169H84.1388V17.4169H84.5345V11.4169ZM86.9886 15.3543C87.1106 14.9833 87.334 14.66 87.8134 14.3497L84.5528 9.31294C83.0099 10.3117 81.8704 11.7121 81.289 13.4794L86.9886 15.3543ZM87.8134 14.3497C88.285 14.0444 88.8809 13.8494 89.711 13.8494V7.84944C87.8594 7.84944 86.1034 8.30908 84.5528 9.31294L87.8134 14.3497ZM89.711 13.8494C90.6484 13.8494 91.3109 14.0647 91.8178 14.3896L95.0559 9.33844C93.4526 8.31057 91.6313 7.84944 89.711 7.84944V13.8494ZM91.8178 14.3896C92.356 14.7347 92.8247 15.2451 93.2022 16.0362L98.6173 13.4521C97.8078 11.7558 96.6279 10.3462 95.0559 9.33844L91.8178 14.3896ZM93.2112 16.0549C93.5603 16.7736 93.8 17.7744 93.8 19.1625H99.8C99.8 17.1032 99.4461 15.1584 98.6083 13.4334L93.2112 16.0549ZM93.8 19.1625C93.8 20.5181 93.564 21.5501 93.1936 22.3398L98.6259 24.8874C99.4425 23.1462 99.8 21.2107 99.8 19.1625H93.8ZM93.2022 22.3216C92.8323 23.0967 92.3638 23.6044 91.8084 23.9532L94.9993 29.0343C96.5981 28.0303 97.8002 26.6179 98.6173 24.9057L93.2022 22.3216ZM91.7848 23.9682C91.2705 24.2979 90.6164 24.5083 89.711 24.5083V30.5083C91.6193 30.5083 93.4271 30.0424 95.023 29.0193L91.7848 23.9682ZM88.557 27.3991C89.8748 27.3991 91.1627 27.0736 92.314 26.339L89.0864 21.281C89.0068 21.3319 88.8658 21.3991 88.557 21.3991V27.3991ZM92.314 26.339C93.5031 25.5802 94.339 24.4996 94.8722 23.2645L89.3637 20.8862C89.2375 21.1785 89.1283 21.2543 89.0864 21.281L92.314 26.339ZM94.8561 23.3013C95.429 22.0218 95.6455 20.6039 95.6455 19.1625H89.6455C89.6455 20.0339 89.5104 20.5579 89.3799 20.8494L94.8561 23.3013ZM95.6455 19.1625C95.6455 17.0667 95.2084 14.9161 93.7786 13.2881L89.2704 17.2475C89.3353 17.3214 89.6455 17.7673 89.6455 19.1625H95.6455ZM93.8032 13.3165C92.4413 11.7261 90.5933 10.9587 88.557 10.9587V16.9587C88.9826 16.9587 89.113 17.064 89.2458 17.2191L93.8032 13.3165ZM88.557 10.9587C87.2392 10.9587 85.9514 11.2841 84.8001 12.0188L88.0276 17.0768C88.1073 17.0259 88.2482 16.9587 88.557 16.9587V10.9587ZM84.8653 11.9783C83.629 12.7234 82.7765 13.8249 82.225 15.0564L87.7012 17.5084C87.7799 17.3326 87.849 17.2342 87.8908 17.1843C87.9297 17.1378 87.9533 17.1227 87.9624 17.1172L84.8653 11.9783ZM82.2088 15.0932C81.6669 16.3485 81.4685 17.7461 81.4685 19.1625H87.4685C87.4685 18.2661 87.5999 17.7436 87.7173 17.4716L82.2088 15.0932ZM81.4685 19.1625C81.4685 21.2633 81.9169 23.373 83.2873 25.0134L87.8919 21.1666C87.7675 21.0178 87.4685 20.5092 87.4685 19.1625H81.4685ZM83.3109 25.0412C84.6728 26.6317 86.5207 27.3991 88.557 27.3991V21.3991C88.1314 21.3991 88.0011 21.2938 87.8683 21.1387L83.3109 25.0412ZM5.80915 11.2578L23.931 3.86274L21.664 -1.69252L3.5422 5.70251L5.80915 11.2578ZM15.1375 7.96002L15.037 8.00354L17.4215 13.5094L17.522 13.4658L15.1375 7.96002ZM11.0351 17.4838L9.86629 17.5846L10.3822 23.5624L11.551 23.4615L11.0351 17.4838ZM8.87303 17.5882L7.03969 17.4436L6.56795 23.425L8.40128 23.5696L8.87303 17.5882ZM14.8329 23.8737L14.625 23.1267L8.84476 24.7356L9.05268 25.4826L14.8329 23.8737ZM11.7961 11.3048L11.1771 12.8306L16.737 15.0861L17.356 13.5602L11.7961 11.3048ZM10.523 15.3484L10.1922 18.0282L16.147 18.7633L16.4778 16.0836L10.523 15.3484ZM19.6971 19.3988L20.7962 18.7695L17.8147 13.5627L16.7156 14.192L19.6971 19.3988ZM13.954 21.2914L17.3322 20.3762L15.7633 14.5849L12.3852 15.5001L13.954 21.2914ZM16.7156 14.192C16.4206 14.3609 16.1007 14.4936 15.7633 14.5849L17.3322 20.3762C18.1591 20.1522 18.9542 19.8242 19.6971 19.3988L16.7156 14.192ZM17.8408 13.5429C17.8421 13.5397 17.8427 13.5402 17.8396 13.5437C17.8364 13.5473 17.8289 13.5545 17.8147 13.5627L20.7962 18.7695C21.951 18.1082 22.8666 17.0858 23.3825 15.843L17.8408 13.5429ZM17.522 13.4658C17.5691 13.4454 17.5998 13.4401 17.6162 13.4384C17.6336 13.4366 17.6499 13.4374 17.6674 13.4408C17.7069 13.4486 17.7593 13.4724 17.8053 13.5151C17.8516 13.5581 17.8549 13.5856 17.8508 13.5693C17.8482 13.5593 17.8465 13.5447 17.8475 13.5299C17.8486 13.5141 17.8515 13.5171 17.8408 13.5429L23.3825 15.843C25.598 10.5049 19.936 5.88178 15.1375 7.96004L17.522 13.4658ZM15.037 8.00355C13.5768 8.63594 12.4027 9.80953 11.7961 11.3048L17.356 13.5602C17.3564 13.5592 17.3589 13.5533 17.3681 13.544C17.3774 13.5346 17.3942 13.5212 17.4216 13.5093L15.037 8.00355ZM17.1173 26.5711C16.0419 26.1794 15.078 24.951 14.8705 24.0234L9.01514 25.3329C9.63362 28.0983 11.918 31.0629 15.0637 32.2087L17.1173 26.5711ZM11.1771 12.8306C10.8497 13.6378 10.6297 14.484 10.523 15.3484L16.4778 16.0836C16.52 15.7418 16.607 15.4067 16.737 15.0861L11.1771 12.8306ZM21.7179 24.3697C21.2243 26.1609 19.1476 27.3106 17.1173 26.5711L15.0637 32.2087C20.2089 34.0829 26.0284 31.312 27.5023 25.9638L21.7179 24.3697ZM-2.09275 15.531C-1.42084 19.864 2.23076 23.0829 6.56794 23.425L7.0397 17.4436C5.34405 17.3098 4.06234 16.0687 3.83639 14.6116L-2.09275 15.531ZM23.8094 3.9093C25.5617 3.28144 27.1123 4.87573 26.7974 6.31032L32.6579 7.59662C34.0302 1.34454 27.7739 -3.88468 21.7856 -1.73908L23.8094 3.9093ZM9.86629 17.5846C9.53684 17.6131 9.20451 17.6143 8.87303 17.5882L8.40128 23.5696C9.06077 23.6216 9.72344 23.6193 10.3822 23.5624L9.86629 17.5846ZM3.5422 5.70251C-0.379882 7.30301 -2.7458 11.3197 -2.09275 15.531L3.83639 14.6116C3.6226 13.233 4.37753 11.842 5.80915 11.2578L3.5422 5.70251ZM14.625 23.1267C14.3881 22.2755 14.2767 21.4005 14.2926 20.5272L8.29356 20.4181C8.26705 21.875 8.45312 23.3286 8.84476 24.7356L14.625 23.1267ZM26.8395 6.14196L24.2807 15.2486L30.0571 16.8716L32.6158 7.76498L26.8395 6.14196ZM24.2807 15.2486L21.722 24.3552L27.4983 25.9783L30.0571 16.8716L24.2807 15.2486Z" fill="#FFA666" mask="url(#path-1-inside-1_494_927)"/>
</svg>
