<svg width="30" height="30" viewBox="0 0 30 30" fill="none" xmlns="http://www.w3.org/2000/svg">
<mask id="path-1-inside-1_392_541" fill="white">
<path d="M0.0741959 14.7811C-0.373493 11.8924 1.23831 9.09786 4.0033 7.96887L22.7218 0.325819C26.7195 -1.10743 30.7515 2.41876 29.8802 6.39099L24.5941 25.2151C23.5779 28.9046 19.4999 30.9306 15.794 29.5799C13.6139 28.7854 11.9363 26.6186 11.5097 24.7101L11.2949 23.9381C10.9703 22.7711 10.8167 21.5678 10.8386 20.3636L12.7769 18.217L16.2663 17.2712C16.8676 17.1082 17.4435 16.8701 17.9795 16.563L19.1148 15.9126C19.7257 15.5626 20.1993 15.0281 20.464 14.39C21.5633 11.7397 18.7349 9.10916 16.0411 10.2765L15.9373 10.3215C15.1549 10.6606 14.5428 11.2815 14.2297 12.0538L13.5903 13.6308C13.354 14.2136 13.1955 14.8241 13.1186 15.4474L12.7769 18.217L10.8386 20.3636L9.63126 20.4678C9.12089 20.5119 8.60701 20.5138 8.09521 20.4734L6.20152 20.3239C3.08578 20.078 0.537904 17.7732 0.0741959 14.7811Z"/>
</mask>
<path d="M11.6636 17.2117L9.72528 19.3583L11.9519 21.3689L13.8902 19.2223L11.6636 17.2117ZM22.7218 0.325819L21.7094 -2.49818L21.648 -2.4762L21.5877 -2.45158L22.7218 0.325819ZM29.8802 6.39099L32.7684 7.20206L32.7919 7.11852L32.8105 7.03378L29.8802 6.39099ZM10.8386 20.3636L13.8381 20.4181L13.8986 17.0882L10.5805 17.3747L10.8386 20.3636ZM12.7769 18.217L9.79946 17.8497L9.25278 22.2805L13.5617 21.1125L12.7769 18.217ZM17.9795 16.563L19.4709 19.1661L19.4709 19.1661L17.9795 16.563ZM16.2663 17.2712L15.4814 14.3757L15.4814 14.3757L16.2663 17.2712ZM20.464 14.39L23.235 15.5395L20.464 14.39ZM19.1148 15.9126L17.6234 13.3095L17.6234 13.3095L19.1148 15.9126ZM16.0411 10.2765L17.2339 13.0292L17.234 13.0292L16.0411 10.2765ZM15.9373 10.3215L14.7445 7.56886L14.7444 7.56888L15.9373 10.3215ZM14.2297 12.0538L11.4495 10.9266L14.2297 12.0538ZM15.794 29.5799L14.7666 32.3985L15.794 29.5799ZM11.5097 24.7101L14.4375 24.0557L14.4206 23.9804L14.4 23.9061L11.5097 24.7101ZM13.5903 13.6308L16.3705 14.758L13.5903 13.6308ZM13.1186 15.4474L16.096 15.8148V15.8148L13.1186 15.4474ZM24.5941 25.2151L21.7058 24.4041L21.7038 24.4113L21.7018 24.4185L24.5941 25.2151ZM0.0741959 14.7811L-2.89041 15.2406L0.0741959 14.7811ZM6.20152 20.3239L5.9655 23.3146H5.9655L6.20152 20.3239ZM9.63126 20.4678L9.37316 17.479H9.37316L9.63126 20.4678ZM8.09521 20.4734L8.33123 17.4827H8.33123L8.09521 20.4734ZM4.0033 7.96887L2.86924 5.19147H2.86924L4.0033 7.96887ZM11.2949 23.9381L14.1852 23.1341L11.2949 23.9381ZM5.13735 10.7463L23.8558 3.10321L21.5877 -2.45158L2.86924 5.19147L5.13735 10.7463ZM26.9919 5.57993L21.7058 24.4041L27.4824 26.0262L32.7684 7.20206L26.9919 5.57993ZM14.8483 7.52388L14.7445 7.56886L17.1301 13.0742L17.2339 13.0292L14.8483 7.52388ZM10.5805 17.3747L9.37316 17.479L9.88936 23.4567L11.0967 23.3525L10.5805 17.3747ZM8.33123 17.4827L6.43753 17.3332L5.9655 23.3146L7.8592 23.4641L8.33123 17.4827ZM14.4 23.9061L14.1852 23.1341L8.40469 24.7421L8.61946 25.5141L14.4 23.9061ZM11.4495 10.9266L10.8101 12.5036L16.3705 14.758L17.0099 13.181L11.4495 10.9266ZM10.1412 15.0801L9.79946 17.8497L15.7543 18.5844L16.096 15.8148L10.1412 15.0801ZM19.4709 19.1661L20.6062 18.5156L17.6234 13.3095L16.4881 13.96L19.4709 19.1661ZM13.5617 21.1125L17.0511 20.1667L15.4814 14.3757L11.992 15.3215L13.5617 21.1125ZM16.4881 13.96C16.176 14.1388 15.8378 14.2791 15.4814 14.3757L17.0511 20.1667C17.8974 19.9373 18.7109 19.6015 19.4709 19.1661L16.4881 13.96ZM17.6929 13.2406C17.6876 13.2533 17.6707 13.2824 17.6234 13.3095L20.6062 18.5156C21.7806 17.8427 22.711 16.8028 23.235 15.5395L17.6929 13.2406ZM17.234 13.0292C17.3362 12.9849 17.3982 12.9886 17.4416 12.9972C17.5007 13.0089 17.5713 13.0421 17.6319 13.0984C17.6927 13.155 17.7069 13.2 17.7078 13.2035C17.708 13.2042 17.7077 13.2032 17.7075 13.2009C17.7073 13.1984 17.7073 13.1963 17.7074 13.1952C17.7077 13.1901 17.7081 13.2039 17.6929 13.2406L23.235 15.5395C25.483 10.1202 19.7375 5.40511 14.8482 7.52391L17.234 13.0292ZM14.7444 7.56888C13.2591 8.21257 12.0657 9.40662 11.4495 10.9266L17.0099 13.181C17.0198 13.1565 17.0507 13.1086 17.1302 13.0742L14.7444 7.56888ZM16.8213 26.7613C15.6768 26.3442 14.6588 25.0459 14.4375 24.0557L8.58195 25.3645C9.21377 28.1912 11.5511 31.2266 14.7666 32.3985L16.8213 26.7613ZM10.8101 12.5036C10.4752 13.3297 10.2503 14.1955 10.1412 15.0801L16.096 15.8148C16.1407 15.4526 16.2328 15.0976 16.3705 14.758L10.8101 12.5036ZM21.7018 24.4185C21.1752 26.3304 18.968 27.5437 16.8213 26.7613L14.7666 32.3985C20.0317 34.3175 25.9806 31.4788 27.4864 26.0117L21.7018 24.4185ZM-2.89041 15.2406C-2.20402 19.6695 1.52778 22.9644 5.9655 23.3146L6.43753 17.3332C4.64378 17.1917 3.27983 15.8769 3.03881 14.3217L-2.89041 15.2406ZM23.7342 3.14982C25.6106 2.47713 27.2935 4.18127 26.9498 5.74821L32.8105 7.03378C34.2094 0.656243 27.8285 -4.69198 21.7094 -2.49818L23.7342 3.14982ZM9.37316 17.479C9.02753 17.5088 8.67892 17.5101 8.33123 17.4827L7.8592 23.4641C8.53511 23.5174 9.21426 23.515 9.88936 23.4567L9.37316 17.479ZM2.86924 5.19147C-1.14151 6.82912 -3.5574 10.9368 -2.89041 15.2406L3.03881 14.3217C2.81042 12.848 3.61812 11.3666 5.13735 10.7463L2.86924 5.19147ZM14.1852 23.1341C13.9378 22.2448 13.8215 21.3307 13.8381 20.4181L7.83906 20.3091C7.81186 21.8049 8.00278 23.2973 8.40469 24.7421L14.1852 23.1341Z" fill="#FFA666" mask="url(#path-1-inside-1_392_541)"/>
</svg>
